<?xml version="1.0" encoding="UTF-8"?>
<svg width="400px" height="320px" viewBox="0 0 400 320" version="1.1" xmlns="http://www.w3.org/2000/svg" xmlns:xlink="http://www.w3.org/1999/xlink">
    <!-- Generator: Sketch 60.1 (88133) - https://sketch.com -->
    <title>1-auto_record</title>
    <desc>Created with Sketch.</desc>
    <g id="页面-1" stroke="none" stroke-width="1" fill="none" fill-rule="evenodd">
        <g id="1-auto_record">
            <path d="M7.74509804,101.902541 C4.73333333,113.023617 13.5882353,123.025411 20.5529412,131.080419 C30.0861023,142.130749 37.6082395,155.502106 42.6313725,170.327055 C45.6588235,179.286099 47.7647059,188.924365 47.2,198.59133 C45.6,226.008969 24.4313725,244.276233 7.51764706,262.438266 C5.12156863,265.035575 2.7254902,267.752466 1.32941176,271.253812 C-3.15294118,282.489686 4.46666667,295.437967 12.8588235,302.603288 C42.745098,328.107623 85.8823529,320.521375 114.870588,293.51988 C129.882353,279.533632 142.784314,260.515396 160.976471,254.29716 C172.607843,250.341405 184.952941,252.216442 196.988235,253.436173 C215.034022,255.259845 233.163056,255.521986 251.239216,254.220628 C257.584314,253.742302 264.219608,252.996114 269.533333,248.743797 C282.988235,237.991031 280.717647,212.496263 290.427451,196.855007 C297.407843,185.61435 309.333333,181.280717 319.713725,175.067265 C335.691299,165.45078 349.023552,150.360902 358.078431,131.644843 C366.411765,114.343797 370.729412,94.6750374 374.941176,75.283707 C378.117647,60.7139013 381.305882,45.4553064 378.615686,30.7372197 C375.92549,16.019133 365.305882,2.27683109 352.992157,3.56831091 C343.537255,4.55844544 336.015686,13.6705531 326.909804,16.9327354 C305.098039,24.767713 283.921569,-2.44424514 261.294118,0.181763827 C247.047059,1.83198804 235.556863,15.0098655 226.870588,28.8813154 C218.184314,42.7527653 210.831373,58.3701046 199.360784,68.8167414 C181.517647,85.0798206 157.070588,85.6538117 135.227451,80.3874439 C113.384314,75.1210762 92.427451,64.7557549 70.3411765,61.3022422 C57.3294118,59.2693572 47.3568627,68.7258595 35.6392157,73.9252616 C24.8862745,78.6989537 11.7294118,87.1940209 7.74509804,101.902541 Z" id="路径" fill="#00BFA6" fill-rule="nonzero" opacity="0.1"></path>
            <ellipse id="椭圆形" fill="#00BFA6" fill-rule="nonzero" opacity="0.1" cx="54.0980392" cy="309.036771" rx="28.5254902" ry="10.5710015"></ellipse>
            <ellipse id="椭圆形" fill="#00BFA6" fill-rule="nonzero" opacity="0.1" cx="323.815686" cy="173.833184" rx="76.1843137" ry="6.16562033"></ellipse>
            <g id="编组" opacity="0.5" transform="translate(250.196078, 32.526158)" fill="#00BFA6" fill-rule="nonzero">
                <path d="M27.5607843,0.191330344 L27.5607843,0.191330344 C29.76126,0.191330344 31.545098,2.36713277 31.545098,5.05112108 L31.545098,140.178176 L23.5764706,140.178176 L23.5764706,5.04633782 C23.5786349,2.36421768 25.3618392,0.191330344 27.5607843,0.191330344 Z" id="路径"></path>
                <path d="M114.984314,0.1912714 L114.984314,0.1912714 C117.184789,0.1912714 118.968627,2.36713277 118.968627,5.05112108 L118.968627,140.178176 L110.980392,140.178176 L110.980392,5.04633782 C110.981422,3.75411584 111.404347,2.51560196 112.155684,1.60455931 C112.90702,0.69351666 113.924894,0.18497037 114.984314,0.1912714 L114.984314,0.1912714 Z" id="路径"></path>
                <path d="M71.2745098,-45.411202 C73.9584981,-45.411202 76.1343005,-43.2353995 76.1343005,-40.5514112 L76.1343005,91.6270465 C76.1343005,94.3110348 73.9584981,96.4868372 71.2745098,96.4868372 C68.5905215,96.4868372 66.4147191,94.3110348 66.4147191,91.6270465 L66.4147191,-40.5514112 C66.4147191,-43.2353995 68.5905215,-45.411202 71.2745098,-45.411202 Z" id="矩形" transform="translate(71.274510, 25.537818) rotate(90.000000) translate(-71.274510, -25.537818) "></path>
                <rect id="矩形" x="14.9647059" y="7.28011958" width="6.24313725" height="36.5058296" rx="3.12156863"></rect>
                <rect id="矩形" x="8.72156863" y="10.6953662" width="6.24313725" height="29.6801196" rx="3.12156863"></rect>
                <rect id="矩形" transform="translate(124.458824, 25.533034) rotate(-180.000000) translate(-124.458824, -25.533034) " x="121.337255" y="7.28011958" width="6.24313725" height="36.5058296" rx="3.12156863"></rect>
                <rect id="矩形" transform="translate(130.701961, 25.530643) rotate(180.000000) translate(-130.701961, -25.530643) " x="127.580392" y="10.690583" width="6.24313725" height="29.6801196" rx="3.12156863"></rect>
            </g>
            <g id="编组" opacity="0.5" transform="translate(306.666667, 88.968610)" fill="#00BFA6" fill-rule="nonzero">
                <path d="M6.84705882,0.30612855 L23.1372549,0.30612855 C26.8191532,0.30612855 29.8039216,3.94674284 29.8039216,8.43766816 L29.8039216,42.5710015 L0.196078431,42.5710015 L0.196078431,8.43766816 C0.196078431,3.95420416 3.17128785,0.316677877 6.84705882,0.30612855 Z" id="路径"></path>
                <rect id="矩形" x="12.8156863" y="39.5049327" width="4.33333333" height="17.6167414"></rect>
                <rect id="矩形" x="4.14901961" y="59.3219731" width="4.33333333" height="17.6167414"></rect>
                <rect id="矩形" x="22.2039216" y="59.3219731" width="4.33333333" height="17.6167414"></rect>
                <rect id="矩形" x="0.180392157" y="55.7967115" width="29.6078431" height="4.84544096"></rect>
            </g>
            <ellipse id="椭圆形" fill="#00BFA6" fill-rule="nonzero" opacity="0.1" cx="185.52549" cy="276.44843" rx="162.478431" ry="14.5315396"></ellipse>
            <path d="M227.592157,224.698356 C227.592157,224.698356 238.784314,230.863976 244.2,230.863976 C244.2,230.863976 249.976471,232.624215 253.219608,234.389238 C256.462745,236.15426 269.105882,237.029596 269.105882,237.029596 C269.105882,237.029596 283.909804,243.635277 285.713725,246.720478 C287.517647,249.80568 292.933333,235.718984 292.933333,235.718984 L290.043137,226.913004 L235.533333,214.141704 L227.592157,224.698356 Z" id="路径" fill="#FFB9B9" fill-rule="nonzero"></path>
            <path d="M227.592157,224.698356 C227.592157,224.698356 238.784314,230.863976 244.2,230.863976 C244.2,230.863976 249.976471,232.624215 253.219608,234.389238 C256.462745,236.15426 269.105882,237.029596 269.105882,237.029596 C269.105882,237.029596 283.909804,243.635277 285.713725,246.720478 C287.517647,249.80568 292.933333,235.718984 292.933333,235.718984 L290.043137,226.913004 L235.533333,214.141704 L227.592157,224.698356 Z" id="路径" fill="#000000" fill-rule="nonzero" opacity="0.05"></path>
            <path d="M282.835294,244.08012 C282.835294,244.08012 289.694118,255.081614 286.807843,261.696861 C283.921569,268.312108 285.003922,268.302541 286.807843,268.742601 C288.611765,269.182661 298.721569,271.827803 299.807843,262.136921 C300.894118,252.446039 303.058824,230.868759 303.058824,230.868759 L288.235294,229.103737 C288.235294,229.103737 292.223529,245.400299 282.835294,244.08012 Z" id="路径" fill="#737A9D" fill-rule="nonzero"></path>
            <path d="M197.623529,210.166816 L228.67451,227.783558 C228.67451,227.783558 238.423529,218.532735 237.694118,213.692078 L201.588235,203.121076 L197.623529,210.166816 Z" id="路径" fill="#4C4C78" fill-rule="nonzero"></path>
            <path d="M197.623529,210.166816 L228.67451,227.783558 C228.67451,227.783558 238.423529,218.532735 237.694118,213.692078 L201.588235,203.121076 L197.623529,210.166816 Z" id="路径" fill="#000000" fill-rule="nonzero" opacity="0.1"></path>
            <path d="M327.968627,233.069058 L324.705882,242.755157 L317.137255,244.945889 C315.016593,242.787127 312.748164,240.853996 310.356863,239.167713 C306.282353,236.297758 300.921569,233.489985 295.847059,233.934828 C295.847059,233.934828 275.627451,229.969507 274.545098,228.194918 C274.545098,228.194918 261.545098,224.669656 258.658824,225.109716 C257.266667,225.320179 254.27451,224.100448 251.552941,222.775486 C248.631373,221.340508 246.019608,219.824215 246.019608,219.824215 L255.407843,201.767414 C256.502822,202.342318 257.629828,202.821845 258.780392,203.202392 C262.368627,204.484305 268.827451,206.148879 278.156863,206.148879 C293.321569,206.148879 314.262745,225.0858 314.262745,225.0858 C314.262745,225.0858 314.470588,225.171898 314.827451,225.301046 C316.396078,225.879821 320.866667,227.243049 322.929412,225.0858 C325.439216,222.498057 327.968627,233.069058 327.968627,233.069058 Z" id="路径" fill="#FFB9B9" fill-rule="nonzero"></path>
            <path d="M327.968627,233.069058 L324.705882,242.755157 L317.137255,244.945889 C315.016593,242.787127 312.748164,240.853996 310.356863,239.167713 C321.368627,240.176981 314.792157,225.348879 314.792157,225.348879 L314.815686,225.348879 C316.384314,225.927653 320.854902,227.290882 322.917647,225.133632 C325.439216,222.498057 327.968627,233.069058 327.968627,233.069058 Z" id="路径" fill="#000000" fill-rule="nonzero" opacity="0.1"></path>
            <path d="M310.4,239.540807 C310.4,239.540807 319.133333,254.478924 315.458824,262.892676 C311.784314,271.306428 313.160784,271.301644 315.458824,271.866069 C317.756863,272.430493 330.631373,275.793124 332.007843,263.4571 C333.066667,253.971898 332.137255,235.766816 331.65098,227.864873 C331.588217,226.857291 331.196804,225.922494 330.564376,225.269778 C329.931949,224.617062 329.111338,224.300954 328.286275,224.392227 L315.513725,225.827205 C315.513725,225.827205 322.352941,241.224514 310.4,239.540807 Z" id="路径" fill="#737A9D" fill-rule="nonzero"></path>
            <polygon id="路径" fill="#00BFA6" fill-rule="nonzero" points="103.023529 254.206278 103.384314 275.788341 107.356863 279.308819 121.078431 279.308819 123.603922 274.908221 123.603922 254.206278 119.631373 249.800897 106.635294 249.800897"></polygon>
            <path d="M105.188235,254.646338 C105.188235,254.646338 107.717647,274.463378 105.188235,276.228401 L103.384314,275.788341 L103.023529,254.651121 L105.188235,254.646338 Z" id="路径" fill="#FFFFFF" fill-rule="nonzero" opacity="0.2"></path>
            <path d="M134.796078,252.886099 L137.686275,249.360837 L151.411765,249.360837 L154.301961,252.886099 C154.301961,252.886099 157.913725,265.657399 155.023529,274.023318 L151.764706,277.98864 L138.039216,277.98864 L134.788235,274.463378 L134.796078,252.886099 Z" id="路径" fill="#00BFA6" fill-rule="nonzero"></path>
            <polygon id="路径" fill="#000000" fill-rule="nonzero" opacity="0.1" points="103.023529 254.206278 103.384314 275.788341 107.356863 279.308819 121.078431 279.308819 123.603922 274.908221 123.603922 254.206278 119.631373 249.800897 106.635294 249.800897"></polygon>
            <path d="M134.796078,252.886099 L137.686275,249.360837 L151.411765,249.360837 L154.301961,252.886099 C154.301961,252.886099 157.913725,265.657399 155.023529,274.023318 L151.764706,277.98864 L138.039216,277.98864 L134.788235,274.463378 L134.796078,252.886099 Z" id="路径" fill="#000000" fill-rule="nonzero" opacity="0.1"></path>
            <path d="M138.039216,253.766218 C138.039216,253.766218 140.929412,269.182661 138.039216,274.463378 L134.788235,274.463378 L134.788235,252.886099 L138.039216,253.766218 Z" id="路径" fill="#FFFFFF" fill-rule="nonzero" opacity="0.2"></path>
            <path d="M123.603922,179.778774 C123.603922,179.778774 125.047059,196.955456 125.047059,199.155755 C125.047059,201.356054 124.32549,215.89716 126.490196,229.983857 C128.654902,244.070553 125.047059,261.687294 125.047059,261.687294 L136.960784,261.687294 L142.015686,214.122571 L138.403922,189.02003 L136.960784,181.09417 L123.603922,179.778774 Z" id="路径" fill="#FFB9B9" fill-rule="nonzero"></path>
            <path d="M123.603922,179.778774 C123.603922,179.778774 125.047059,196.955456 125.047059,199.155755 C125.047059,201.356054 124.32549,215.89716 126.490196,229.983857 C128.654902,244.070553 125.047059,261.687294 125.047059,261.687294 L136.960784,261.687294 L142.015686,214.122571 L138.403922,189.02003 L136.960784,181.09417 L123.603922,179.778774 Z" id="路径" fill="#000000" fill-rule="nonzero" opacity="0.05"></path>
            <path d="M121.439216,136.179372 C121.439216,136.179372 105.552941,136.619432 118.188235,168.767713 C118.188235,168.767713 121.439216,181.979073 121.439216,184.184155 C121.439216,186.389238 137.686275,186.384454 139.478431,184.184155 C141.270588,181.983857 136.588235,163.927055 136.588235,155.556353 C136.588235,147.18565 131.909804,133.539013 121.439216,136.179372 Z" id="路径" fill="#CBCDDA" fill-rule="nonzero"></path>
            <path d="M121.439216,136.179372 C121.439216,136.179372 105.552941,136.619432 118.188235,168.767713 C118.188235,168.767713 121.439216,181.979073 121.439216,184.184155 C121.439216,186.389238 137.686275,186.384454 139.478431,184.184155 C141.270588,181.983857 136.588235,163.927055 136.588235,155.556353 C136.588235,147.18565 131.909804,133.539013 121.439216,136.179372 Z" id="路径" fill="#000000" fill-rule="nonzero" opacity="0.05"></path>
            <path d="M102.301961,117.232885 C102.301961,117.232885 116.027451,135.289686 127.576471,122.078326 L126.133333,168.76293 C126.133333,168.76293 107.356863,141.02003 94.3686275,143.220329 L102.301961,117.232885 Z" id="路径" fill="#FFB9B9" fill-rule="nonzero"></path>
            <path d="M258.764706,203.255007 C258.215686,208.416143 256.490196,219.283707 251.537255,222.804185 C248.615686,221.369208 246.003922,219.852915 246.003922,219.852915 L255.392157,201.796114 C256.486616,202.379154 257.613632,202.866678 258.764706,203.255007 L258.764706,203.255007 Z" id="路径" fill="#000000" fill-rule="nonzero" opacity="0.1"></path>
            <path d="M257.921569,200.461584 C257.921569,200.461584 256.839216,222.043647 248.172549,223.803886 L195.827451,212.2858 C193.286986,211.722782 190.898359,210.408923 188.870588,208.459193 C186.756863,206.431091 184.164706,203.675934 182.631373,201.150374 C181.8,199.772795 181.298039,198.457399 181.380392,197.371599 C181.741176,192.526158 197.627451,181.075037 192.211765,160.817937 C192.981757,160.074323 193.838198,159.474629 194.752941,159.038565 C199.27451,156.747384 209.682353,155.063677 224.705882,174.029297 C224.705882,174.053214 252.505882,201.360837 257.921569,200.461584 Z" id="路径" fill="#4C4C78" fill-rule="nonzero"></path>
            <polygon id="路径" fill="#00BFA6" fill-rule="nonzero" points="116.384314 255.966517 116.745098 277.54858 120.713725 281.073842 134.435294 281.073842 136.964706 276.66846 136.964706 255.966517 132.992157 251.565919 119.992157 251.565919"></polygon>
            <path d="M118.54902,256.42571 C118.54902,256.42571 121.078431,276.24275 118.54902,278.007773 L116.745098,277.567713 L116.384314,256.42571 L118.54902,256.42571 Z" id="路径" fill="#FFFFFF" fill-rule="nonzero" opacity="0.2"></path>
            <path d="M156.101961,254.206278 L158.992157,250.681016 L172.717647,250.681016 L175.607843,254.206278 C175.607843,254.206278 179.219608,266.977578 176.329412,275.343498 L173.078431,279.308819 L159.352941,279.308819 L156.101961,275.783558 L156.101961,254.206278 Z" id="路径" fill="#00BFA6" fill-rule="nonzero"></path>
            <path d="M159.34902,255.086398 C159.34902,255.086398 162.239216,270.50284 159.34902,275.783558 L156.098039,275.783558 L156.098039,254.206278 L159.34902,255.086398 Z" id="路径" fill="#FFFFFF" fill-rule="nonzero" opacity="0.2"></path>
            <path d="M136.862745,262.576981 L156.396078,262.576981 C157.92549,262.576981 159.164706,264.251121 159.164706,266.322272 L159.164706,266.322272 C159.164706,268.38864 157.92549,270.067564 156.396078,270.067564 L136.862745,270.067564 C135.203922,270.067564 133.917647,268.111211 134.117647,265.886996 L134.117647,265.886996 C134.278431,263.997608 135.462745,262.576981 136.862745,262.576981 Z" id="路径" fill="#00BFA6" fill-rule="nonzero"></path>
            <path d="M193.290196,193.870254 C189.427451,197.170703 185.356863,199.332735 182.627451,201.17429 C181.796078,199.796712 181.294118,198.481315 181.376471,197.395516 C181.737255,192.550075 197.623529,181.098954 192.207843,160.841854 C192.977836,160.098239 193.834277,159.498546 194.74902,159.062481 C195.597415,159.04061 196.440906,158.899366 197.262745,158.641555 C197.262745,158.641555 200.509804,187.704634 193.290196,193.870254 Z" id="路径" fill="#000000" fill-rule="nonzero" opacity="0.1"></path>
            <path d="M112.231373,151.371001 C112.231373,151.371001 117.647059,157.976682 122.882353,162.162033 C127.713725,166.022123 119.090196,127.14858 119.090196,127.14858 C119.090196,127.14858 124.439216,121.886996 127.580392,118.763528 C129.67821,116.658462 132.351141,115.599049 135.062745,115.797907 C142.290196,116.367115 155.529412,120.074141 166.211765,137.944395 C181.737255,163.927055 195.819608,158.641555 195.819608,158.641555 C195.819608,158.641555 199.070588,187.709417 191.847059,193.875037 C184.623529,200.040658 176.682353,202.240957 178.121569,205.766218 C179.560784,209.29148 171.623529,188.589537 153.568627,185.069058 C135.513725,181.54858 115.654902,166.132138 116.019608,158.646338 C116.023529,158.641555 110.788235,153.58565 112.231373,151.371001 Z" id="路径" fill="#CBCDDA" fill-rule="nonzero"></path>
            <path d="M108.439216,128.712706 C108.437448,127.439462 108.345604,126.168779 108.164706,124.914798 C103.435294,122.044843 104.105882,118.141704 104.105882,118.141704 L96.1607843,144.124365 C99.0666667,143.646039 102.262745,144.640957 105.470588,146.515994 C109.694118,142.445441 108.439216,135.739312 108.439216,128.712706 Z" id="路径" fill="#000000" fill-rule="nonzero" opacity="0.1"></path>
            <ellipse id="椭圆形" fill="#FFB9B9" fill-rule="nonzero" cx="92.5529412" cy="128.253513" rx="18.054902" ry="22.0221226"></ellipse>
            <path d="M76.1490196,133.218535 C75.8156863,134.524365 75.3019608,135.86846 74.3333333,136.566816 C73.1568627,137.418236 71.5333333,136.997309 70.4862745,135.89716 C69.4392157,134.79701 68.8745098,133.15157 68.5803922,131.506129 C68.1567481,129.123664 68.2241184,126.650239 68.7764706,124.307324 C69.2470588,122.322272 70.0588235,120.480717 70.4,118.447833 C70.7647059,116.2858 70.5803922,114.023318 70.9882353,111.870852 C71.5411765,108.953064 73.1176471,106.508819 74.654902,104.169806 C75.6283062,102.36585 77.1615257,101.12256 78.9019608,100.725859 L86.4588235,97.9467862 C87.8915064,97.3615369 89.3639505,96.9325492 90.8588235,96.6648729 C92.7805901,96.4248936 94.7222406,96.6326669 96.5803922,97.27713 C98.0601114,97.7311014 99.4639686,98.4950134 100.729412,99.5348281 C101.983202,100.67099 103.087427,102.033978 104.003922,103.576682 C108,109.947982 110.278431,120.370703 114.4,126.641555 C112.772549,127.253812 111.145098,125.206577 109.517647,125.828401 C109.286327,125.950051 109.028574,125.975269 108.784314,125.900149 C108.542331,125.73987 108.352707,125.483255 108.247059,125.173094 C106.812888,122.117294 104.55567,119.761273 101.858824,118.505232 C99.8588235,117.582063 97.1529412,117.586846 96.0588235,119.825411 C95.3176471,121.336921 95.6156863,123.245441 95.8117647,124.99133 C96.0078431,126.73722 95.972549,128.817937 94.8392157,129.89417 C94.212907,130.410442 93.484058,130.711182 92.7294118,130.764723 C89.211998,131.32702 85.6357332,130.899974 82.2745098,129.516293 C81.0980392,129.037967 79.9019608,127.540807 78.6588235,128.019133 C76.9803922,128.664873 76.5921569,131.482212 76.1490196,133.218535 Z" id="路径" fill="#000000" fill-rule="nonzero" opacity="0.1"></path>
            <path d="M75.7529412,132.735426 C75.4196078,134.041256 74.9058824,135.385351 73.9372549,136.083707 C72.7607843,136.935127 71.1372549,136.5142 70.0901961,135.414051 C69.0431373,134.313901 68.4784314,132.66846 68.1843137,131.023019 C67.7606697,128.640555 67.82804,126.16713 68.3803922,123.824215 C68.8509804,121.839163 69.6627451,119.997608 70.0039216,117.964723 C70.3686275,115.802691 70.1843137,113.540209 70.5921569,111.387743 C71.145098,108.469955 72.7215686,106.02571 74.2588235,103.686697 C75.2322278,101.882741 76.7654473,100.639451 78.5058824,100.24275 L86.0627451,97.4636771 C87.4955514,96.8800508 88.9679932,96.4526645 90.4627451,96.1865471 C92.3845117,95.9465677 94.3261622,96.1543411 96.1843137,96.7988042 C97.664033,97.2527756 99.0678902,98.0166875 100.333333,99.0565022 C101.587123,100.192664 102.691349,101.555652 103.607843,103.098356 C107.603922,109.469656 109.882353,119.892377 114.003922,126.163229 C112.376471,126.775486 110.74902,124.728251 109.121569,125.350075 C108.890248,125.471725 108.632496,125.496944 108.388235,125.421824 C108.143315,125.263268 107.950773,125.006454 107.843137,124.694768 C106.408967,121.638968 104.151749,119.282947 101.454902,118.026906 C99.454902,117.103737 96.7490196,117.10852 95.654902,119.347085 C94.9137255,120.858595 95.2117647,122.767115 95.4078431,124.513004 C95.6039216,126.258894 95.5686275,128.339611 94.4352941,129.415845 C93.8089854,129.932117 93.0801364,130.232856 92.3254902,130.286398 C88.8080765,130.848694 85.2318117,130.421648 81.8705882,129.037967 C80.6941176,128.559641 79.4980392,127.062481 78.254902,127.540807 C76.5843137,128.181764 76.1960784,130.999103 75.7529412,132.735426 Z" id="路径" fill="#B96B6B" fill-rule="nonzero"></path>
            <g id="编组" opacity="0.1" transform="translate(111.764706, 125.799701)" fill="#000000" fill-rule="nonzero">
                <path d="M8.54901961,0.148281016 L7.3254902,1.35366218 C7.3254902,1.35366218 12.3803922,24.1363229 12.5803922,33.0857997 C15.1607843,32.2343797 10.1960784,7.85889387 8.54901961,0.148281016 Z" id="路径"></path>
                <path d="M80.7843137,64.5500747 C73.5647059,70.7156951 65.6196078,72.915994 67.0588235,76.4412556 C68.4980392,79.9665172 60.5607843,59.264574 42.5058824,55.7440957 C25.5686275,52.438864 7.04313725,38.6678625 5.11372549,30.7946188 C2.40784314,27.9724963 0.439215686,25.5760837 0.439215686,25.5760837 C-1.00392157,27.7763827 4.23137255,32.8418535 4.23137255,32.8418535 C3.87058824,40.3276532 23.7294118,55.7440957 41.7803922,59.264574 C59.8313725,62.7850523 67.7764706,83.4869955 66.3333333,79.9617339 C64.8901961,76.4364723 72.8313725,74.2218236 80.0588235,68.0705531 C82.1254902,66.3055306 83.3333333,62.6654709 84.0078431,58.3653214 C83.3098039,61.0869955 82.2745098,63.2920777 80.7843137,64.5500747 Z" id="路径"></path>
            </g>
            <path d="M156.101961,232.628999 C155.019608,234.389238 154.298039,252.446039 154.298039,252.446039 C154.298039,252.446039 158.611765,278.4287 145.278431,275.788341 C131.945098,273.147982 143.47451,254.651121 143.47451,254.651121 L141.670588,229.10852 C134.811765,207.105531 136.254902,191.234679 136.254902,191.234679 L134.972549,176.85142 L134.447059,170.977578 L149.972549,166.572197 C149.54902,167.260987 149.729412,171.556353 150.109804,176.545291 C150.701961,184.361136 151.776471,193.875037 151.776471,193.875037 C155.015686,198.275635 157.184314,230.863976 156.101961,232.628999 Z" id="路径" fill="#FFB9B9" fill-rule="nonzero"></path>
            <path d="M134.07451,126.933333 C134.07451,126.933333 118.188235,127.373393 130.823529,159.521674 C130.823529,159.521674 134.07451,172.733034 134.07451,174.938117 C134.07451,177.143199 150.321569,177.138416 152.113725,174.938117 C153.905882,172.737818 149.223529,154.681016 149.223529,146.310314 C149.223529,137.939611 144.545098,124.288191 134.07451,126.933333 Z" id="路径" fill="#000000" fill-rule="nonzero" opacity="0.1"></path>
            <path d="M150.098039,176.545291 C146.72549,177.669357 138.458824,177.769806 134.956863,176.85142 L134.431373,170.977578 L149.956863,166.572197 C149.541176,167.256203 149.721569,171.55157 150.098039,176.545291 Z" id="路径" fill="#000000" fill-rule="nonzero" opacity="0.1"></path>
            <path d="M133.352941,126.933333 C133.352941,126.933333 117.466667,127.373393 130.101961,159.521674 C130.101961,159.521674 133.352941,172.733034 133.352941,174.938117 C133.352941,177.143199 149.6,177.138416 151.392157,174.938117 C153.184314,172.737818 148.501961,154.681016 148.501961,146.310314 C148.501961,137.939611 143.823529,124.288191 133.352941,126.933333 Z" id="路径" fill="#CBCDDA" fill-rule="nonzero"></path>
            <g id="编组" opacity="0.5" transform="translate(15.686275, 195.635277)" fill-rule="nonzero">
                <polygon id="路径" fill="#00BFA6" points="13.7411765 0.23916293 2.24313725 0.526158445 0.368627451 3.6735426 0.368627451 14.5506726 2.71372549 16.554858 13.7411765 16.554858 16.0901961 13.4074738 16.0901961 3.10433483"></polygon>
                <path d="M13.5098039,1.95635277 C13.5098039,1.95635277 2.94901961,3.96053812 2.01176471,1.95635277 L2.24705882,0.521375187 L13.5098039,0.234379671 L13.5098039,1.95635277 Z" id="路径" fill="#FFFFFF" opacity="0.2"></path>
                <path d="M14.6823529,31.722571 L16.5607843,34.0137519 L16.5607843,44.8908819 L14.6823529,47.1820628 C14.6823529,47.1820628 7.87843137,50.0520179 3.41960784,47.7560538 L1.30588235,45.1778774 L1.30588235,34.3007474 L3.18431373,31.722571 L14.6823529,31.722571 Z" id="路径" fill="#00BFA6"></path>
                <path d="M14.2117647,34.3007474 C14.2117647,34.3007474 6,36.5919283 3.18431373,34.3007474 L3.18431373,31.722571 L14.6823529,31.722571 L14.2117647,34.3007474 Z" id="路径" fill="#FFFFFF" opacity="0.2"></path>
                <path d="M10.2235294,16.4783259 L10.2235294,31.9617339 C10.1665316,33.2386677 9.27464996,34.2196613 8.22745098,34.1572496 L8.22745098,34.1572496 C7.180252,34.2196613 6.28837033,33.2386677 6.23137255,31.9617339 L6.23137255,16.4783259 C6.23137255,15.1629297 7.2745098,14.1440957 8.45882353,14.2971599 L8.45882353,14.2971599 C9.4177842,14.3668471 10.1791021,15.3078315 10.2235294,16.4783259 L10.2235294,16.4783259 Z" id="路径" fill="#00BFA6"></path>
                <polygon id="路径" fill="#00BFA6" points="32.1568627 0.67922272 20.6588235 0.966218236 18.7803922 4.11360239 18.7803922 14.9907324 21.1294118 16.9949178 32.1568627 16.9949178 34.5019608 13.8475336 34.5019608 3.54439462"></polygon>
                <path d="M31.9215686,2.40119581 C31.9215686,2.40119581 21.3607843,4.40538117 20.4235294,2.40119581 L20.6588235,0.966218236 L31.9215686,0.67922272 L31.9215686,2.40119581 Z" id="路径" fill="#FFFFFF" opacity="0.2"></path>
                <path d="M33.0941176,32.1674141 L34.972549,34.4585949 L34.972549,45.335725 L33.0941176,47.6269058 C33.0941176,47.6269058 26.2901961,50.496861 21.8313725,48.2008969 L19.7176471,45.6227205 L19.7176471,34.7408072 L21.5960784,32.1626308 L33.0941176,32.1674141 Z" id="路径" fill="#00BFA6"></path>
                <path d="M32.627451,34.7408072 C32.627451,34.7408072 24.4156863,37.031988 21.6,34.7408072 L21.6,32.1626308 L33.0980392,32.1626308 L32.627451,34.7408072 Z" id="路径" fill="#FFFFFF" opacity="0.2"></path>
                <path d="M28.627451,16.9183857 L28.627451,32.4017937 C28.5704532,33.6787275 27.6785715,34.6597211 26.6313725,34.5973094 L26.6313725,34.5973094 C25.5841736,34.6597211 24.6922919,33.6787275 24.6352941,32.4017937 L24.6352941,16.9183857 C24.6352941,15.6029895 25.6784314,14.5841555 26.8627451,14.7372197 L26.8627451,14.7372197 C27.8217058,14.8069069 28.5830236,15.7478913 28.627451,16.9183857 Z" id="路径" fill="#00BFA6"></path>
                <polygon id="路径" fill="#00BFA6" points="55.6 8.96382661 46.1333333 9.19820628 44.5882353 11.7907324 44.5882353 20.7449925 46.5215686 22.3904335 55.6 22.3904335 57.5294118 19.7979073 57.5294118 11.3171898"></polygon>
                <path d="M55.4039216,10.3748879 C55.4039216,10.3748879 46.7098039,12.0251121 45.9372549,10.3748879 L46.1294118,9.19820628 L55.4,8.96382661 L55.4039216,10.3748879 Z" id="路径" fill="#FFFFFF" opacity="0.2"></path>
                <path d="M56.372549,34.8795217 L57.9176471,36.7641256 L57.9176471,45.7183857 L56.372549,47.6029895 C56.372549,47.6029895 50.772549,49.961136 47.1019608,48.0813154 L45.3607843,45.9623318 L45.3607843,36.9985052 L46.9058824,34.8795217 L56.372549,34.8795217 Z" id="路径" fill="#00BFA6"></path>
                <path d="M55.9843137,36.9985052 C55.9843137,36.9985052 49.2235294,38.8831091 46.9058824,36.9985052 L46.9058824,34.8795217 L56.372549,34.8795217 L55.9843137,36.9985052 Z" id="路径" fill="#FFFFFF" opacity="0.2"></path>
                <path d="M52.7019608,22.3282511 L52.7019608,35.0756353 C52.6513758,36.1233634 51.9182513,36.925809 51.0588235,36.8741405 L51.0588235,36.8741405 C50.1965047,36.925686 49.4621358,36.1176028 49.4156863,35.0660688 L49.4156863,22.3282511 C49.4432733,21.7830457 49.6582894,21.2773842 50.007774,20.9358159 C50.3572587,20.5942476 50.8087279,20.4485207 51.2509804,20.5345291 L51.2509804,20.5345291 C52.0394302,20.5921757 52.6652861,21.3658674 52.7019608,22.3282511 Z" id="路径" fill="#00BFA6"></path>
                <polygon id="路径" fill="#00BFA6" points="70.7568627 9.322571 61.2901961 9.56173393 59.745098 12.1494768 59.745098 21.1037369 61.6784314 22.7539611 70.7568627 22.7539611 72.6901961 20.161435 72.6901961 11.6807175"></polygon>
                <path d="M70.5647059,10.7384155 C70.5647059,10.7384155 61.8705882,12.3886398 61.0980392,10.7384155 L61.2901961,9.56173393 L70.5607843,9.32735426 L70.5647059,10.7384155 Z" id="路径" fill="#FFFFFF" opacity="0.2"></path>
                <path d="M71.5294118,35.2430493 L73.0745098,37.1276532 L73.0745098,46.0819133 L71.5294118,47.9665172 C71.5294118,47.9665172 65.9294118,50.3246637 62.2588235,48.444843 L60.5215686,46.3258595 L60.5215686,37.3524664 L62.0666667,35.2334828 L71.5294118,35.2430493 Z" id="路径" fill="#00BFA6"></path>
                <path d="M71.145098,37.3524664 C71.145098,37.3524664 64.3843137,39.2370703 62.0666667,37.3524664 L62.0666667,35.2334828 L71.5294118,35.2334828 L71.145098,37.3524664 Z" id="路径" fill="#FFFFFF" opacity="0.2"></path>
                <path d="M67.8431373,22.6917788 L67.8431373,35.4391629 C67.7966877,36.490697 67.0623188,37.2987802 66.2,37.2472347 L66.2,37.2472347 C65.3376812,37.2987802 64.6033123,36.490697 64.5568627,35.4391629 L64.5568627,22.6917788 C64.5844497,22.1465733 64.7994658,21.6409118 65.1489505,21.2993435 C65.4984351,20.9577752 65.9499043,20.8120483 66.3921569,20.8980568 L66.3921569,20.8980568 C67.1806067,20.9557034 67.8064625,21.729395 67.8431373,22.6917788 Z" id="路径" fill="#00BFA6"></path>
            </g>
            <g id="编组" opacity="0.8" transform="translate(36.470588, 269.297459)">
                <path d="M9.48235294,12.4795217 C9.48235294,12.4795217 3.9254902,10.1835575 1.24705882,16.1578475 C-0.187102306,19.4488429 -0.142725067,23.405621 1.36470588,26.6475336 C3.12156863,30.5219731 6.74117647,35.5491779 13.6,35.1043348 C19.4196078,34.7264574 21.3529412,29.3070254 21.8784314,24.2702541 C22.2871632,20.428427 21.0287806,16.6037376 18.5560641,14.1723532 C16.0833475,11.7409688 12.75204,11.052686 9.76078431,12.355157 L9.48235294,12.4795217 Z" id="路径" fill="#00BFA6" fill-rule="nonzero"></path>
                <path d="M2.54509804,27.1784753 C1.03766709,23.9365627 0.993289851,19.9797846 2.42745098,16.6887892 C5.10196078,10.7144993 10.6627451,13.0104634 10.6627451,13.0104634 L10.9490196,12.8860987 C13.0675734,11.9509363 15.3960275,12.0140494 17.4784314,13.0630792 C15.1490992,11.3682506 12.3190832,11.0381645 9.76862745,12.1638266 L9.48235294,12.2881913 C9.48235294,12.2881913 3.9254902,9.9922272 1.24705882,15.9665172 C-0.187102306,19.2575126 -0.142725067,23.2142907 1.36470588,26.4562033 C2.54117647,29.0056801 4.50196078,32.0526158 7.63921569,33.7124066 C5.48486751,32.141155 3.72341058,29.8818357 2.54509804,27.1784753 L2.54509804,27.1784753 Z" id="路径" fill="#FFFFFF" fill-rule="nonzero" opacity="0.1"></path>
                <path d="M6.61176471,15.3494768 C6.61176471,15.3494768 8.67058824,17.3249626 13.6705882,15.3494768" id="路径" fill="#000000" fill-rule="nonzero" opacity="0.2"></path>
                <path d="M6.17254902,0.999701046 C6.17254902,0.999701046 9.70196078,12.670852 9.41176471,15.722571 L12.2078431,15.3638266 C12.2078431,15.3638266 7.50196078,5.13243647 8.67843137,1.01405082 L6.17254902,0.999701046 Z" id="路径" fill="#00BFA6" fill-rule="nonzero"></path>
                <path d="M6.17254902,0.999701046 C6.17254902,0.999701046 9.70196078,12.670852 9.41176471,15.722571 L12.2078431,15.3638266 C12.2078431,15.3638266 7.50196078,5.13243647 8.67843137,1.01405082 L6.17254902,0.999701046 Z" id="路径" fill="#000000" fill-rule="nonzero" opacity="0.2"></path>
                <path d="M20.5882353,1.95635277 C20.5882353,1.95635277 15.027451,-1.51150972 12.5411765,1.35366218 C10.054902,4.21883408 9.67058824,11.542003 9.67058824,11.542003 C9.67058824,11.542003 18.7372549,13.0678625 20.5882353,1.95635277 Z" id="路径" fill="#00BFA6" fill-rule="nonzero"></path>
                <path d="M20.5882353,1.95635277 C20.5882353,1.95635277 15.027451,-1.51150972 12.5411765,1.35366218 C10.054902,4.21883408 9.67058824,11.542003 9.67058824,11.542003 C9.67058824,11.542003 18.7372549,13.0678625 20.5882353,1.95635277 Z" id="路径" fill="#FFFFFF" fill-rule="nonzero" opacity="0.1"></path>
                <path d="M9.67058824,11.52287 C9.67058824,11.52287 11.1294118,3.02301943 20.5882353,1.95635277" id="路径" stroke="#00BFA6"></path>
            </g>
            <path d="M69.4117647,292.343199 C69.4117647,292.343199 63.854902,290.047235 61.1764706,296.021525 C59.7423095,299.31252 59.7866867,303.269298 61.2941176,306.511211 C63.0509804,310.38565 66.6705882,315.412855 73.5294118,314.968012 C79.3490196,314.590135 81.2823529,309.170703 81.8078431,304.133931 C82.216575,300.292104 80.9581924,296.467415 78.4854758,294.03603 C76.0127593,291.604646 72.6814518,290.916363 69.6901961,292.218834 L69.4117647,292.343199 Z" id="路径" fill="#00BFA6" fill-rule="nonzero"></path>
            <path d="M62.4862745,307.046936 C60.9788436,303.805023 60.9344663,299.848245 62.3686275,296.55725 C65.0431373,290.58296 70.6039216,292.878924 70.6039216,292.878924 L70.8901961,292.754559 C73.0087498,291.819397 75.337204,291.88251 77.4196078,292.93154 C75.0902756,291.236711 72.2602597,290.906625 69.7098039,292.032287 L69.4235294,292.156652 C69.4235294,292.156652 63.8666667,289.860688 61.1882353,295.834978 C59.7540742,299.125973 59.7984514,303.082751 61.3058824,306.324664 C62.4823529,308.874141 64.4431373,311.921076 67.5803922,313.580867 C65.426044,312.009615 63.6645871,309.750296 62.4862745,307.046936 Z" id="路径" fill="#FFFFFF" fill-rule="nonzero" opacity="0.1"></path>
            <path d="M66.5529412,295.213154 C66.5529412,295.213154 68.6117647,297.18864 73.6117647,295.213154" id="路径" fill="#000000" fill-rule="nonzero" opacity="0.2"></path>
            <path d="M66.1098039,280.853812 C66.1098039,280.853812 69.6392157,292.524963 69.3490196,295.576682 L72.145098,295.217937 C72.145098,295.217937 67.4392157,284.986547 68.6156863,280.868161 L66.1098039,280.853812 Z" id="路径" fill="#00BFA6" fill-rule="nonzero"></path>
            <path d="M66.1098039,280.853812 C66.1098039,280.853812 69.6392157,292.524963 69.3490196,295.576682 L72.145098,295.217937 C72.145098,295.217937 67.4392157,284.986547 68.6156863,280.868161 L66.1098039,280.853812 Z" id="路径" fill="#000000" fill-rule="nonzero" opacity="0.2"></path>
            <path d="M80.5294118,281.824813 C80.5294118,281.824813 74.9686275,278.356951 72.4823529,281.222123 C69.9960784,284.087294 69.6117647,291.410463 69.6117647,291.410463 C69.6117647,291.410463 78.6784314,292.93154 80.5294118,281.824813 Z" id="路径" fill="#00BFA6" fill-rule="nonzero"></path>
            <path d="M80.5294118,281.824813 C80.5294118,281.824813 74.9686275,278.356951 72.4823529,281.222123 C69.9960784,284.087294 69.6117647,291.410463 69.6117647,291.410463 C69.6117647,291.410463 78.6784314,292.93154 80.5294118,281.824813 Z" id="路径" fill="#FFFFFF" fill-rule="nonzero" opacity="0.1"></path>
            <path d="M69.6117647,291.410463 C69.6117647,291.410463 71.0705882,282.910613 80.5294118,281.843946" id="路径" stroke="#00BFA6"></path>
            <path d="M24.7058824,264.638565 C24.7058824,264.638565 25.2509804,263.89716 24.227451,263.600598 L24.227451,262.380867 L24.8431373,262.380867 C24.8421108,259.342259 23.0994584,256.718201 20.6627451,256.086099 L20.6627451,254.608072 L20.8235294,254.608072 L20.8235294,252.694768 L16.8627451,252.694768 L16.8627451,254.608072 L16.9764706,254.608072 L16.9764706,256.105232 C14.573548,256.77064 12.8677604,259.375363 12.8666667,262.380867 L13.4156863,262.380867 L13.4156863,263.552765 C13.4156863,263.552765 12.1137255,264.303737 13.4156863,265.643049 C14.7176471,266.982362 14.5137255,267.982063 14.5137255,267.982063 C14.5137255,267.982063 13.9647059,270.48849 12.8705882,270.823318 L12.8705882,294.141704 C12.8705882,297.002688 14.7720612,299.321973 17.1176471,299.321973 L20.4745098,299.321973 C22.812438,299.311442 24.7037395,296.998149 24.7058824,294.146487 L24.7058824,270.823318 C24.7058824,270.823318 22.7882353,269.067862 23.1372549,267.982063 C23.5924404,266.822305 24.1167214,265.70481 24.7058824,264.638565 L24.7058824,264.638565 Z" id="路径" fill="#00BFA6" fill-rule="nonzero"></path>
        </g>
    </g>
</svg>