<?xml version="1.0" encoding="UTF-8"?>
<svg width="400px" height="320px" viewBox="0 0 400 320" version="1.1" xmlns="http://www.w3.org/2000/svg" xmlns:xlink="http://www.w3.org/1999/xlink">
    <!-- Generator: Sketch 60.1 (88133) - https://sketch.com -->
    <title>undraw_data_xmfy</title>
    <desc>Created with Sketch.</desc>
    <defs>
        <linearGradient x1="50%" y1="100%" x2="50%" y2="0%" id="linearGradient-1">
            <stop stop-color="#808080" stop-opacity="0.25" offset="0%"></stop>
            <stop stop-color="#808080" stop-opacity="0.12" offset="54%"></stop>
            <stop stop-color="#808080" stop-opacity="0.1" offset="100%"></stop>
        </linearGradient>
        <linearGradient x1="50%" y1="100%" x2="50%" y2="0%" id="linearGradient-2">
            <stop stop-color="#808080" stop-opacity="0.25" offset="0%"></stop>
            <stop stop-color="#808080" stop-opacity="0.12" offset="54%"></stop>
            <stop stop-color="#808080" stop-opacity="0.1" offset="100%"></stop>
        </linearGradient>
        <linearGradient x1="50%" y1="100%" x2="50%" y2="0%" id="linearGradient-3">
            <stop stop-color="#808080" stop-opacity="0.25" offset="0%"></stop>
            <stop stop-color="#808080" stop-opacity="0.12" offset="54%"></stop>
            <stop stop-color="#808080" stop-opacity="0.1" offset="100%"></stop>
        </linearGradient>
        <linearGradient x1="50%" y1="100%" x2="50%" y2="0%" id="linearGradient-4">
            <stop stop-color="#808080" stop-opacity="0.25" offset="0%"></stop>
            <stop stop-color="#808080" stop-opacity="0.12" offset="54%"></stop>
            <stop stop-color="#808080" stop-opacity="0.1" offset="100%"></stop>
        </linearGradient>
        <linearGradient x1="50%" y1="100%" x2="50%" y2="0%" id="linearGradient-5">
            <stop stop-color="#808080" stop-opacity="0.25" offset="0%"></stop>
            <stop stop-color="#808080" stop-opacity="0.12" offset="54%"></stop>
            <stop stop-color="#808080" stop-opacity="0.1" offset="100%"></stop>
        </linearGradient>
        <linearGradient x1="49.9285714%" y1="100.071429%" x2="49.9285714%" y2="0.0714285714%" id="linearGradient-6">
            <stop stop-color="#808080" stop-opacity="0.25" offset="0%"></stop>
            <stop stop-color="#808080" stop-opacity="0.12" offset="54%"></stop>
            <stop stop-color="#808080" stop-opacity="0.1" offset="100%"></stop>
        </linearGradient>
        <linearGradient x1="50%" y1="100%" x2="50%" y2="4.0602442e-13%" id="linearGradient-7">
            <stop stop-color="#808080" stop-opacity="0.25" offset="0%"></stop>
            <stop stop-color="#808080" stop-opacity="0.12" offset="54%"></stop>
            <stop stop-color="#808080" stop-opacity="0.1" offset="100%"></stop>
        </linearGradient>
        <linearGradient x1="50.2514286%" y1="62.8225432%" x2="50.2514286%" y2="36.8225432%" id="linearGradient-8">
            <stop stop-color="#808080" stop-opacity="0.25" offset="0%"></stop>
            <stop stop-color="#808080" stop-opacity="0.12" offset="54%"></stop>
            <stop stop-color="#808080" stop-opacity="0.1" offset="100%"></stop>
        </linearGradient>
        <linearGradient x1="50.0349437%" y1="100.017363%" x2="50.0349437%" y2="-0.00121488599%" id="linearGradient-9">
            <stop stop-color="#808080" stop-opacity="0.25" offset="0%"></stop>
            <stop stop-color="#808080" stop-opacity="0.12" offset="54%"></stop>
            <stop stop-color="#808080" stop-opacity="0.1" offset="100%"></stop>
        </linearGradient>
        <linearGradient x1="49.9000045%" y1="65.6138856%" x2="49.9000045%" y2="34.6138856%" id="linearGradient-10">
            <stop stop-color="#808080" stop-opacity="0.25" offset="0%"></stop>
            <stop stop-color="#808080" stop-opacity="0.12" offset="54%"></stop>
            <stop stop-color="#808080" stop-opacity="0.1" offset="100%"></stop>
        </linearGradient>
        <linearGradient x1="50.0140677%" y1="100%" x2="50.0140677%" y2="-0.00389417185%" id="linearGradient-11">
            <stop stop-color="#808080" stop-opacity="0.25" offset="0%"></stop>
            <stop stop-color="#808080" stop-opacity="0.12" offset="54%"></stop>
            <stop stop-color="#808080" stop-opacity="0.1" offset="100%"></stop>
        </linearGradient>
        <linearGradient x1="50%" y1="100%" x2="50%" y2="0%" id="linearGradient-12">
            <stop stop-color="#808080" stop-opacity="0.25" offset="0%"></stop>
            <stop stop-color="#808080" stop-opacity="0.12" offset="54%"></stop>
            <stop stop-color="#808080" stop-opacity="0.1" offset="100%"></stop>
        </linearGradient>
        <linearGradient x1="50%" y1="100%" x2="50%" y2="0%" id="linearGradient-13">
            <stop stop-color="#808080" stop-opacity="0.25" offset="0%"></stop>
            <stop stop-color="#808080" stop-opacity="0.12" offset="54%"></stop>
            <stop stop-color="#808080" stop-opacity="0.1" offset="100%"></stop>
        </linearGradient>
        <linearGradient x1="50%" y1="100%" x2="50%" y2="0%" id="linearGradient-14">
            <stop stop-color="#808080" stop-opacity="0.25" offset="0%"></stop>
            <stop stop-color="#808080" stop-opacity="0.12" offset="54%"></stop>
            <stop stop-color="#808080" stop-opacity="0.1" offset="100%"></stop>
        </linearGradient>
        <linearGradient x1="50.0273059%" y1="99.999138%" x2="50.0273059%" y2="0.0062036416%" id="linearGradient-15">
            <stop stop-color="#808080" stop-opacity="0.25" offset="0%"></stop>
            <stop stop-color="#808080" stop-opacity="0.12" offset="54%"></stop>
            <stop stop-color="#808080" stop-opacity="0.1" offset="100%"></stop>
        </linearGradient>
        <linearGradient x1="50%" y1="100%" x2="50%" y2="0%" id="linearGradient-16">
            <stop stop-color="#808080" stop-opacity="0.25" offset="0%"></stop>
            <stop stop-color="#808080" stop-opacity="0.12" offset="54%"></stop>
            <stop stop-color="#808080" stop-opacity="0.1" offset="100%"></stop>
        </linearGradient>
        <linearGradient x1="50%" y1="100%" x2="50%" y2="0%" id="linearGradient-17">
            <stop stop-color="#808080" stop-opacity="0.25" offset="0%"></stop>
            <stop stop-color="#808080" stop-opacity="0.12" offset="54%"></stop>
            <stop stop-color="#808080" stop-opacity="0.1" offset="100%"></stop>
        </linearGradient>
        <linearGradient x1="50%" y1="100%" x2="50%" y2="0%" id="linearGradient-18">
            <stop stop-color="#808080" stop-opacity="0.25" offset="0%"></stop>
            <stop stop-color="#808080" stop-opacity="0.12" offset="54%"></stop>
            <stop stop-color="#808080" stop-opacity="0.1" offset="100%"></stop>
        </linearGradient>
        <linearGradient x1="50%" y1="50%" x2="50%" y2="50%" id="linearGradient-19">
            <stop stop-color="#808080" stop-opacity="0.25" offset="0%"></stop>
            <stop stop-color="#808080" stop-opacity="0.12" offset="54%"></stop>
            <stop stop-color="#808080" stop-opacity="0.1" offset="100%"></stop>
        </linearGradient>
        <linearGradient x1="50%" y1="100%" x2="50%" y2="0%" id="linearGradient-20">
            <stop stop-color="#808080" stop-opacity="0.25" offset="0%"></stop>
            <stop stop-color="#808080" stop-opacity="0.12" offset="54%"></stop>
            <stop stop-color="#808080" stop-opacity="0.1" offset="100%"></stop>
        </linearGradient>
        <linearGradient x1="0.0174947516%" y1="49.9860514%" x2="100%" y2="49.9860514%" id="linearGradient-21">
            <stop stop-color="#808080" stop-opacity="0.25" offset="0%"></stop>
            <stop stop-color="#808080" stop-opacity="0.12" offset="54%"></stop>
            <stop stop-color="#808080" stop-opacity="0.1" offset="100%"></stop>
        </linearGradient>
    </defs>
    <g id="页面-1" stroke="none" stroke-width="1" fill="none" fill-rule="evenodd">
        <g id="undraw_data_xmfy">
            <ellipse id="椭圆形" fill="#F2F2F2" fill-rule="nonzero" cx="166.105499" cy="311.932584" rx="30.0785634" ry="7.64044944"></ellipse>
            <ellipse id="椭圆形" fill="#F2F2F2" fill-rule="nonzero" cx="168.350168" cy="227.438202" rx="30.0785634" ry="7.64044944"></ellipse>
            <ellipse id="椭圆形" fill="#F2F2F2" fill-rule="nonzero" cx="30.0785634" cy="231.033708" rx="30.0785634" ry="7.64044944"></ellipse>
            <rect id="矩形" fill="#F5F5F5" fill-rule="nonzero" x="10.1548822" y="1.79775281" width="171.941639" height="6.51685393"></rect>
            <rect id="矩形" fill="url(#linearGradient-1)" fill-rule="nonzero" x="7.01234568" y="0" width="177.777778" height="218.426966"></rect>
            <rect id="矩形" fill="#FFFFFF" fill-rule="nonzero" x="10.1548822" y="8.31460674" width="171.941639" height="206.516854"></rect>
            <ellipse id="椭圆形" fill="#FF5252" fill-rule="nonzero" cx="13.6924804" cy="5.16853933" rx="1.57126824" ry="1.57303371"></ellipse>
            <ellipse id="椭圆形" fill="#FFFF00" fill-rule="nonzero" cx="18.0112233" cy="5.16853933" rx="1.57126824" ry="1.57303371"></ellipse>
            <ellipse id="椭圆形" fill="#69F0AE" fill-rule="nonzero" cx="22.3344557" cy="5.16853933" rx="1.57126824" ry="1.57303371"></ellipse>
            <g id="编组" opacity="0.2" transform="translate(14.814815, 16.179775)" fill="#00BFA6" fill-rule="nonzero">
                <rect id="矩形" x="0.278338945" y="0" width="66.8911336" height="4.04494382"></rect>
            </g>
            <rect id="矩形" fill="#F5F5F5" fill-rule="nonzero" x="62.6801347" y="32.8089888" width="66.8911336" height="4.04494382"></rect>
            <rect id="矩形" fill="#00BFA6" fill-rule="nonzero" opacity="0.5" x="15.0931538" y="163.146067" width="66.8911336" height="4.04494382"></rect>
            <rect id="矩形" fill="url(#linearGradient-2)" fill-rule="nonzero" x="90.962963" y="162.696629" width="22.4466891" height="4.94382022"></rect>
            <rect id="矩形" fill="url(#linearGradient-2)" fill-rule="nonzero" x="90.962963" y="187.865169" width="22.4466891" height="4.94382022"></rect>
            <rect id="矩形" fill="url(#linearGradient-2)" fill-rule="nonzero" x="136.754209" y="187.865169" width="22.4466891" height="4.94382022"></rect>
            <rect id="矩形" fill="#00BFA6" fill-rule="nonzero" x="91.8608305" y="163.146067" width="21.0998878" height="4.04494382"></rect>
            <rect id="矩形" fill="#00BFA6" fill-rule="nonzero" x="91.8608305" y="188.314607" width="21.0998878" height="4.04494382"></rect>
            <rect id="矩形" fill="#00BFA6" fill-rule="nonzero" x="137.203143" y="188.314607" width="21.0998878" height="4.04494382"></rect>
            <rect id="矩形" fill="#F5F5F5" fill-rule="nonzero" x="15.0931538" y="175.730337" width="66.8911336" height="4.04494382"></rect>
            <rect id="矩形" fill="#00BFA6" fill-rule="nonzero" opacity="0.5" x="91.8608305" y="175.730337" width="66.8911336" height="4.04494382"></rect>
            <rect id="矩形" fill="#F5F5F5" fill-rule="nonzero" x="91.8608305" y="200.898876" width="66.8911336" height="4.04494382"></rect>
            <rect id="矩形" fill="#00BFA6" fill-rule="nonzero" opacity="0.5" x="15.0931538" y="188.314607" width="66.8911336" height="4.04494382"></rect>
            <rect id="矩形" fill="#F5F5F5" fill-rule="nonzero" x="15.0931538" y="200.898876" width="66.8911336" height="4.04494382"></rect>
            <rect id="矩形" fill="#F5F5F5" fill-rule="nonzero" x="62.6801347" y="39.5505618" width="37.7104377" height="4.04494382"></rect>
            <rect id="矩形" fill="#F5F5F5" fill-rule="nonzero" x="107.124579" y="39.5505618" width="13.0190797" height="4.04494382"></rect>
            <rect id="矩形" fill="#F5F5F5" fill-rule="nonzero" x="62.6801347" y="53.0337079" width="37.7104377" height="4.04494382"></rect>
            <rect id="矩形" fill="#F5F5F5" fill-rule="nonzero" x="107.124579" y="53.0337079" width="13.0190797" height="4.04494382"></rect>
            <rect id="矩形" fill="#F5F5F5" fill-rule="nonzero" x="62.6801347" y="46.2921348" width="66.8911336" height="4.04494382"></rect>
            <g id="编组" opacity="0.2" transform="translate(109.090909, 16.179775)" fill="#00BFA6" fill-rule="nonzero">
                <rect id="矩形" x="0.278338945" y="0" width="66.8911336" height="4.04494382"></rect>
            </g>
            <rect id="矩形" fill="url(#linearGradient-3)" fill-rule="nonzero" x="147.079686" y="32.3595506" width="8.08080808" height="4.94382022"></rect>
            <rect id="矩形" fill="url(#linearGradient-3)" fill-rule="nonzero" x="147.079686" y="39.1011236" width="8.08080808" height="4.94382022"></rect>
            <rect id="矩形" fill="url(#linearGradient-3)" fill-rule="nonzero" x="147.079686" y="45.8426966" width="8.08080808" height="4.94382022"></rect>
            <rect id="矩形" fill="#FF5252" fill-rule="nonzero" x="147.52862" y="32.8089888" width="7.18294052" height="4.04494382"></rect>
            <rect id="矩形" fill="#FF9800" fill-rule="nonzero" x="147.52862" y="39.5505618" width="7.18294052" height="4.04494382"></rect>
            <rect id="矩形" fill="#69F0AE" fill-rule="nonzero" x="147.52862" y="46.2921348" width="7.18294052" height="4.04494382"></rect>
            <rect id="矩形" fill="url(#linearGradient-3)" fill-rule="nonzero" x="147.079686" y="52.5842697" width="8.08080808" height="4.94382022"></rect>
            <rect id="矩形" fill="#00BFA6" fill-rule="nonzero" x="147.52862" y="53.0337079" width="7.18294052" height="4.04494382"></rect>
            <rect id="矩形" fill="url(#linearGradient-4)" fill-rule="nonzero" x="13.7463524" y="81.7977528" width="164.758698" height="67.4157303"></rect>
            <rect id="矩形" fill="#00BFA6" fill-rule="nonzero" opacity="0.5" x="15.0931538" y="83.1460674" width="161.167228" height="63.8202247"></rect>
            <polygon id="路径" fill="#FFFFFF" fill-rule="nonzero" opacity="0.5" points="20.0314254 88.0898876 176.260382 88.0898876 176.260382 83.1460674 15.0931538 83.1460674 15.0931538 146.966292 20.0314254 146.966292"></polygon>
            <polygon id="矩形" fill="url(#linearGradient-5)" fill-rule="nonzero" transform="translate(100.383573, 119.114846) rotate(-5.200000) translate(-100.383573, -119.114846) " points="17.3335169 84.9662804 183.440549 84.9494347 183.433629 153.263412 17.3265965 153.280257"></polygon>
            <polygon id="矩形" fill="#FFFFFF" fill-rule="nonzero" transform="translate(100.564560, 118.641660) rotate(-5.200000) translate(-100.564560, -118.641660) " points="19.9834348 86.7400146 181.15215 86.7236698 181.145685 150.543306 19.9769697 150.559651"></polygon>
            <path d="M29.4051627,146.332584 L26.6217733,110.930337 C26.6217733,110.930337 40.9876543,95.6494382 69.9887767,106.975281 C98.989899,118.301124 112.664422,110.305618 117.378227,102.65618 C122.092031,95.0067416 146.558923,86.4764045 154.487093,99.2719101 C162.415264,112.067416 171.923681,97.6808989 171.923681,97.6808989 L175.138047,133.038202 L29.4051627,146.332584 Z" id="路径" fill="#00BFA6" fill-rule="nonzero" opacity="0.5"></path>
            <line x1="44.0089787" y1="103.217978" x2="44.2514029" y2="105.905618" id="路径" stroke="#00BFA6"></line>
            <line x1="44.7227834" y1="111.05618" x2="47.2996633" y2="139.397753" id="路径" stroke="#00BFA6" stroke-dasharray="11.51"></line>
            <line x1="47.5331089" y1="141.973034" x2="47.7800224" y2="144.65618" id="路径" stroke="#00BFA6"></line>
            <line x1="71.6139169" y1="107.604494" x2="71.8608305" y2="110.28764" id="路径" stroke="#00BFA6"></line>
            <line x1="72.3905724" y1="116.134831" x2="74.2536476" y2="136.588764" id="路径" stroke="#00BFA6" stroke-dasharray="13.06"></line>
            <line x1="74.5185185" y1="139.510112" x2="74.7609428" y2="142.197753" id="路径" stroke="#00BFA6"></line>
            <line x1="99.7800224" y1="112.404494" x2="100.049383" y2="115.08764" id="路径" stroke="#00BFA6"></line>
            <line x1="100.484848" y1="119.469663" x2="102.002245" y2="134.795506" id="路径" stroke="#00BFA6" stroke-dasharray="9.789999999999999"></line>
            <line x1="102.222222" y1="136.98427" x2="102.487093" y2="139.67191" id="路径" stroke="#00BFA6"></line>
            <line x1="125.095398" y1="96.5573034" x2="125.337823" y2="99.2449438" id="路径" stroke="#00BFA6"></line>
            <line x1="125.795735" y1="104.292135" x2="128.323232" y2="132.062921" id="路径" stroke="#00BFA6" stroke-dasharray="11.28"></line>
            <line x1="128.552189" y1="134.58427" x2="128.799102" y2="137.27191" id="路径" stroke="#00BFA6"></line>
            <line x1="143.367003" y1="92.8494382" x2="143.609428" y2="95.5325843" id="路径" stroke="#00BFA6"></line>
            <line x1="144.094276" y1="100.87191" x2="146.765432" y2="130.233708" id="路径" stroke="#00BFA6" stroke-dasharray="11.93"></line>
            <line x1="147.007856" y1="132.903371" x2="147.25477" y2="135.586517" id="路径" stroke="#00BFA6"></line>
            <ellipse id="椭圆形" fill="#FF9800" fill-rule="nonzero" transform="translate(43.924522, 103.045222) rotate(-5.200000) translate(-43.924522, -103.045222) " cx="43.9245217" cy="103.045222" rx="2.24468963" ry="2.24717029"></ellipse>
            <ellipse id="椭圆形" fill="#FF5252" fill-rule="nonzero" transform="translate(71.399165, 107.764355) rotate(-5.200000) translate(-71.399165, -107.764355) " cx="71.3991647" cy="107.764355" rx="2.24468963" ry="2.24717029"></ellipse>
            <ellipse id="椭圆形" fill="#69F0AE" fill-rule="nonzero" transform="translate(99.773717, 112.397879) rotate(-5.200000) translate(-99.773717, -112.397879) " cx="99.7737173" cy="112.397879" rx="2.24468963" ry="2.24717029"></ellipse>
            <ellipse id="椭圆形" fill="url(#linearGradient-6)" fill-rule="nonzero" transform="translate(124.930339, 96.566842) rotate(-5.200000) translate(-124.930339, -96.566842) " cx="124.930339" cy="96.5668416" rx="3.14256548" ry="3.14603841"></ellipse>
            <ellipse id="椭圆形" fill="url(#linearGradient-7)" fill-rule="nonzero" transform="translate(143.544633, 93.067711) rotate(-5.200000) translate(-143.544633, -93.067711) " cx="143.544633" cy="93.0677107" rx="3.14256548" ry="3.14603841"></ellipse>
            <ellipse id="椭圆形" fill="#00BFA6" fill-rule="nonzero" transform="translate(124.930339, 96.566842) rotate(-5.200000) translate(-124.930339, -96.566842) " cx="124.930339" cy="96.5668416" rx="2.24468963" ry="2.24717029"></ellipse>
            <ellipse id="椭圆形" fill="#00BFA6" fill-rule="nonzero" transform="translate(143.544633, 93.067711) rotate(-5.200000) translate(-143.544633, -93.067711) " cx="143.544633" cy="93.0677107" rx="2.24468963" ry="2.24717029"></ellipse>
            <ellipse id="椭圆形" fill="#69F0AE" fill-rule="nonzero" transform="translate(171.995333, 98.598086) rotate(-5.200000) translate(-171.995333, -98.598086) " cx="171.995333" cy="98.5980861" rx="2.24468963" ry="2.24717029"></ellipse>
            <g id="编组" opacity="0.2" transform="translate(175.982043, 142.921348)" fill="url(#linearGradient-8)" fill-rule="nonzero">
                <path d="M0.63,0.36 L0.665,0.475 C1.05,0.26 0.63,0.36 0.63,0.36 Z" id="路径"></path>
            </g>
            <g id="编组" opacity="0.2" transform="translate(145.454545, 141.123596)" fill="url(#linearGradient-9)" fill-rule="nonzero">
                <path d="M27.375982,77.6179775 L34.684624,76.4359551 L33.6790123,71.941573 L33.6790123,71.941573 L33.6790123,71.8786517 L33.6520763,71.8786517 L28.4713805,48.058427 L28.4713805,30.6876404 C28.4707795,30.4669436 28.458792,30.246425 28.4354658,30.0269663 C36.1750842,19.752809 31.5780022,3.63146067 31.1290685,2.2247191 C31.0482604,2.26516854 30.9270483,2.31910112 30.7564534,2.38651685 C30.7003834,1.7574948 30.5815722,1.13566957 30.4017957,0.530337079 C30.4017957,0.530337079 28.1571268,-0.898876404 26.9315376,0.939325843 C25.8630752,2.54382022 26.657688,3.52359551 26.8776655,3.75280899 L26.7250281,3.80224719 C27.0689937,4.34342522 27.3095148,4.94387968 27.4343434,5.57303371 C27.3634639,5.41806273 27.2824811,5.26792604 27.1919192,5.12359551 C26.9090909,5.0741573 26.7429854,5.02921348 26.7429854,5.02921348 L26.6891134,4.97977528 L26.5364759,5.02921348 C27.3131313,6.16629213 27.5869809,8.1752809 27.5510662,10.5573034 C27.2828391,10.1854891 26.9823864,9.83807635 26.6531987,9.51910112 C25.2340717,8.16205316 23.3624039,7.38051457 21.4006734,7.3258427 L21.0280584,7.3258427 C20.8245417,7.3258427 20.6210251,7.33932584 20.4175084,7.36629213 L20.2648709,7.36629213 L20.0089787,7.40224719 L19.7171717,7.45617978 L19.5061728,7.5011236 L19.1425365,7.6 L19.0078563,7.64044944 C18.8552189,7.68988764 18.7070707,7.73932584 18.5589226,7.79775281 C18.066769,8.03750627 17.5506002,8.22431921 17.0190797,8.35505618 C16.9472503,8.35505618 16.8754209,8.35505618 16.7991021,8.37752809 L16.7991021,8.37752809 C16.1989921,8.41959466 15.6031773,8.24939779 15.1156004,7.89662921 L14.9539843,7.77078652 C14.8928454,7.71836232 14.8344086,7.66285996 14.7789001,7.60449438 C14.7179183,7.76022079 14.6918643,7.92746065 14.7025814,8.09438202 C14.7362407,8.49054807 14.9250607,8.85730278 15.2278339,9.11460674 C15.3128378,9.18831684 15.4062692,9.25168021 15.5061728,9.30337079 C15.6537582,9.38082014 15.8158044,9.42673382 15.9820426,9.43820225 L16.1526375,9.43820225 L16.1122334,9.43820225 C16.0089787,9.48764045 15.9057239,9.53258427 15.7979798,9.57303371 L15.7755331,9.57303371 C15.6588103,9.61348315 15.5465769,9.6494382 15.4253648,9.68089888 L15.4253648,9.68089888 C14.8370485,9.82974044 14.2221405,9.83897442 13.6296296,9.70786517 L13.6296296,9.70786517 L13.4365881,9.66292135 C13.342312,9.63595506 13.2435466,9.60898876 13.1537598,9.57752809 C13.1832837,9.64509239 13.2162488,9.71109665 13.2525253,9.7752809 L13.28844,9.83370787 L13.369248,9.95955056 L13.4186308,10.0224719 L13.5084175,10.1348315 L13.5622896,10.1932584 L13.674523,10.305618 L13.7194164,10.3460674 L13.8855219,10.4853933 L13.9438833,10.5258427 L14.0650954,10.611236 L14.1459035,10.6606742 L14.2536476,10.7235955 L14.3434343,10.7685393 L14.4556678,10.8179775 L14.5499439,10.858427 L14.6756453,10.9033708 L14.8327722,10.9483146 L14.9494949,10.9797753 L15.0617284,10.9797753 L15.1649832,10.9797753 L15.2817059,10.9797753 L15.7306397,10.9797753 C15.9623568,10.9596072 16.1895351,10.903507 16.4040404,10.8134831 L15.9910213,10.9842697 L15.9910213,10.9842697 L15.7845118,11.0561798 L15.5735129,11.1325843 L15.362514,11.1955056 L15.1470258,11.258427 L14.9360269,11.3123596 L14.71156,11.3662921 L14.5050505,11.4067416 L14.2671156,11.447191 L14.0695847,11.4786517 L13.8136925,11.5101124 L13.6296296,11.5101124 L13.3378227,11.5101124 L13.1851852,11.5101124 L12.7362514,11.5101124 C12.9843904,11.5823091 13.2151057,11.7046796 13.4141414,11.8696629 C13.5427806,11.96271 13.6831729,12.0382746 13.8316498,12.094382 C13.8979586,12.1136806 13.9654377,12.1286928 14.03367,12.1393258 L14.0920314,12.1393258 L14.2356902,12.1393258 L14.8417508,12.1393258 L15.0392817,12.1393258 C15.4486903,12.1807246 15.8448346,12.3078169 16.2020202,12.5123596 C16.3912371,12.634304 16.5595141,12.7860752 16.7003367,12.9617978 C16.637486,13.0651685 16.5746352,13.1640449 16.5207632,13.2719101 C16.4668911,13.3797753 16.4264871,13.4516854 16.3815937,13.5460674 C16.291807,13.7318352 16.2124953,13.9220974 16.1436588,14.1168539 C15.8880275,14.8150902 15.7573337,15.5529707 15.7575758,16.2966292 C15.7575758,16.4359551 15.7575758,16.5707865 15.7575758,16.705618 C15.7575758,16.741573 15.7575758,16.7820225 15.7575758,16.8179775 C15.7575758,16.9258427 15.7695473,17.0337079 15.7934905,17.141573 L15.7934905,17.2269663 C15.8114478,17.3588015 15.8353909,17.4891386 15.8653199,17.6179775 L15.8653199,17.694382 C15.889263,17.8022472 15.916199,17.9086142 15.9461279,18.0134831 L15.973064,18.1078652 C16.0485502,18.3620836 16.1400159,18.6112698 16.2469136,18.8539326 L16.2783389,18.9258427 C16.3292181,19.0367041 16.3815937,19.1445693 16.4354658,19.2494382 L16.4354658,19.2808989 C16.5013094,19.4007491 16.5701459,19.5191011 16.6419753,19.6359551 L16.6419753,19.6629213 C16.7078189,19.7707865 16.7781519,19.8756554 16.8529742,19.9775281 L16.8799102,20.0134831 C17.0411555,20.2358419 17.2166063,20.4475202 17.4051627,20.647191 L17.4051627,20.647191 C17.8942589,21.1629832 18.4663676,21.5929267 19.0976431,21.9191011 C19.0761008,22.0155499 19.0596173,22.1130616 19.0482604,22.211236 L19.0482604,22.211236 C19.0428166,22.3130357 19.0428166,22.4150542 19.0482604,22.5168539 L19.0482604,24.8898876 C18.9135802,24.9617978 18.781893,25.0382022 18.6531987,25.1191011 C13.0280584,22.5617978 4.65095398,4.44494382 4.65095398,4.44494382 L4.44893378,4.44494382 C5.26599327,3.83370787 4.44893378,1.17303371 4.44893378,1.17303371 C3.96934757,0.886778563 3.43309399,0.708849108 2.87766554,0.651685393 L2.42873176,0.651685393 L2.34792368,0.651685393 L2.28956229,0.651685393 L2.20875421,0.651685393 L2.15488215,0.651685393 L2.0650954,0.678651685 L2.02020202,0.678651685 L1.88552189,0.728089888 L1.88552189,0.728089888 L1.75982043,0.786516854 L1.71492705,0.808988764 L1.62962963,0.858426966 L1.57126824,1.13258427 L1.49046016,1.18651685 L1.44107744,1.22696629 L1.3647587,1.28988764 L1.31537598,1.33483146 L1.23905724,1.40674157 L1.19416386,1.45617978 L1.11784512,1.54606742 L1.08193042,1.59101124 L0.96969697,1.74382022 C-0.255892256,3.58202247 0.96969697,4.60674157 0.96969697,4.60674157 C0.890787131,5.31555647 0.853312127,6.02838158 0.857463524,6.74157303 C0.767676768,19.9820225 14.9225589,30.2426966 15.6453423,30.7550562 C15.3265993,31.5820225 12.6958474,38.9078652 15.6767677,48.0539326 C15.6860842,48.0763174 15.6981486,48.0974538 15.7126824,48.1168539 C8.80673498,54.488089 5.78103485,64.0403518 7.75757576,73.2314607 L7.81593715,73.505618 L7.94612795,73.505618 C7.93278421,73.5663579 7.91630114,73.6263636 7.89674523,73.6853933 C7.86208313,73.793675 7.81853788,73.8989023 7.76655443,74 C7.67687147,74.1728162 7.56684831,74.3342642 7.43883277,74.4808989 L7.43883277,74.4808989 C7.2996633,74.6426966 7.13804714,74.8044944 6.9674523,74.9707865 L6.78787879,75.141573 C6.07407407,75.8247191 5.35129068,76.4898876 5.89001122,76.7595506 L13.6161616,76.7595506 L13.6161616,73.3842697 L13.7508418,73.3842697 C13.7508418,73.3842697 13.6969697,73.2808989 13.6161616,73.0786517 L13.6161616,73.0426966 L13.5892256,73.0426966 C13.1851852,72 12.2424242,68.7730337 13.7508418,63.8022472 C15.5869809,57.6674157 22.7295174,54.6022472 22.7295174,54.6022472 L22.8597082,55.0516854 L22.8327722,55.0516854 L28.4354658,73.4786517 C28.4354658,73.5505618 28.4354658,73.6224719 28.4130191,73.6988764 C28.3877041,73.8728915 28.3471437,74.0443392 28.291807,74.211236 C28.2488412,74.340142 28.1978625,74.4662309 28.1391695,74.588764 C27.7934905,75.3033708 27.1964085,76.1438202 26.9360269,76.7730337 C26.8987602,76.8592315 26.8672652,76.9478167 26.8417508,77.0382022 C26.8109378,77.1400271 26.8002633,77.246892 26.8103255,77.352809 C26.8260214,77.4902991 26.9182262,77.6069908 27.0482604,77.6539326 L27.0482604,77.6539326 L27.1515152,77.6539326 L27.3670034,77.6179775 L27.375982,77.6179775 Z M25.2121212,25.1550562 C25.0714553,25.0771536 24.9218107,25.0037453 24.7631874,24.9348315 L24.7631874,22.705618 C24.7619793,22.5351892 24.7454517,22.3652152 24.7138047,22.1977528 C25.1975857,21.9668194 25.6501351,21.6753521 26.0606061,21.3303371 C25.7912458,22.705618 25.4904602,24.0224719 25.2166105,25.1550562 L25.2121212,25.1550562 Z" id="形状"></path>
            </g>
            <path d="M146.298541,147.689888 C146.298541,147.689888 144.95174,146.557303 146.298541,144.516854 C147.645342,142.476404 150.145903,144.067416 150.145903,144.067416 C150.145903,144.067416 151.043771,147.011236 150.145903,147.689888 C149.248036,148.368539 146.298541,147.689888 146.298541,147.689888 Z" id="路径" fill="#CA7070" fill-rule="nonzero"></path>
            <path d="M160.287318,223.492135 L154.051627,223.492135 C154.098333,224.087185 153.883592,224.673053 153.463524,225.096629 C152.624018,226.067416 150.936027,227.240449 151.73064,227.640449 L160.287318,227.640449 L160.287318,223.492135 Z" id="cbb1ca8a-3a06-4d8d-9881-c3637d2b9b50" fill="#00695C" fill-rule="nonzero"></path>
            <path d="M153.916947,225.096629 C154.337015,224.673053 154.551756,224.087185 154.505051,223.492135 L154.056117,223.492135 C154.102822,224.087185 153.888081,224.673053 153.468013,225.096629 C152.628507,226.067416 150.940516,227.240449 151.735129,227.640449 L152.184063,227.640449 C151.38945,227.240449 153.077441,226.07191 153.916947,225.096629 Z" id="路径" fill="#FFFFFF" fill-rule="nonzero" opacity="0.2"></path>
            <path d="M182.491582,222.206742 L176.655443,223.155056 C176.816808,223.850785 176.722794,224.58141 176.390572,225.213483 C175.753086,226.561798 174.320988,228.242697 175.182941,228.606742 L183.631874,227.258427 L182.491582,222.206742 Z" id="ec846da8-b8c9-4838-98ee-b96510078eab" fill="#00695C" fill-rule="nonzero"></path>
            <path d="M179.645342,144.925843 C179.645342,144.925843 186.320988,166.008989 175.124579,177.680899 L171.892256,175.204494 C171.892256,175.204494 178.50954,152.193258 174.805836,146.791011 C181.342312,144.611236 179.645342,144.925843 179.645342,144.925843 Z" id="路径" fill="#00695C" fill-rule="nonzero"></path>
            <path d="M175.030303,146.786517 C175.030303,146.786517 173.683502,145.653933 175.030303,143.613483 C176.377104,141.573034 178.877666,143.164045 178.877666,143.164045 C178.877666,143.164045 179.775533,146.107865 178.877666,146.786517 C177.979798,147.465169 175.030303,146.786517 175.030303,146.786517 Z" id="路径" fill="#CA7070" fill-rule="nonzero"></path>
            <path d="M176.839506,225.217978 C177.17282,224.58463 177.26686,223.852205 177.104377,223.155056 L182.491582,222.25618 L182.491582,222.18427 L176.655443,223.155056 C176.816808,223.850785 176.722794,224.58141 176.390572,225.213483 C175.753086,226.561798 174.320988,228.242697 175.182941,228.606742 L175.537598,228.548315 C174.895623,228.098876 176.228956,226.485393 176.839506,225.217978 Z" id="路径" fill="#FFFFFF" fill-rule="nonzero" opacity="0.2"></path>
            <rect id="矩形" fill="#CA7070" fill-rule="nonzero" x="166.320988" y="164.566292" width="6.33445567" height="9.39775281" rx="3.16722783"></rect>
            <path d="M172.345679,176.561798 C172.345679,176.561798 178.882155,153.833708 175.32211,148.247191 C175.007856,148.188764 174.805836,148.14382 174.805836,148.14382 L174.747475,148.089888 L174.581369,148.14382 C178.285073,153.537079 171.667789,176.557303 171.667789,176.557303 L174.900112,179.033708 L175.182941,178.72809 L172.345679,176.561798 Z" id="路径" fill="#FFFFFF" fill-rule="nonzero" opacity="0.2"></path>
            <ellipse id="椭圆形" fill="#CA7070" fill-rule="nonzero" cx="169.602694" cy="160.831461" rx="7.01234568" ry="7.02022472"></ellipse>
            <path d="M167.111111,170.795506 L167.111111,167.739326 C167.11137,167.515677 167.135449,167.292694 167.182941,167.074157 C164.367795,165.626696 162.86995,162.470882 163.527101,159.371658 C164.184251,156.272433 166.833522,153.99794 169.993266,153.820224 L169.598204,153.820224 C166.360628,153.819205 163.543218,156.037274 162.780842,159.187344 C162.018465,162.337415 163.50933,165.600511 166.388328,167.083146 C166.340836,167.301683 166.316757,167.524666 166.316498,167.748315 L166.316498,170.804494 C166.308233,171.717518 166.696587,172.589099 167.380718,173.192915 C168.064849,173.79673 168.977262,174.07321 169.881033,173.950562 C168.297019,173.745033 167.111399,172.394562 167.111111,170.795506 Z" id="路径" fill="#FFFFFF" fill-rule="nonzero" opacity="0.2"></path>
            <path d="M176.727273,195.820225 C176.727273,195.820225 163.200898,197.348315 162.702581,195.820225 C159.196409,185.060674 162.702581,176.570787 162.702581,176.570787 C162.702581,172.693623 165.842115,169.550562 169.714927,169.550562 L169.714927,169.550562 C173.587739,169.550562 176.727273,172.693623 176.727273,176.570787 L176.727273,195.820225 Z" id="路径" fill="#00695C" fill-rule="nonzero"></path>
            <path d="M176.727273,195.820225 L182.837262,223.905618 L176.727273,223.905618 L170.392817,203.069663 C170.392817,203.069663 162.473625,206.467416 160.439955,213.262921 C158.406285,220.058427 160.439955,223.905618 160.439955,223.905618 L153.876543,223.905618 L153.809203,223.6 C151.61181,213.415722 154.998785,202.830666 162.698092,195.820225 L162.698092,195.820225" id="路径" fill="#263238" fill-rule="nonzero"></path>
            <path d="M163.492705,195.820225 C159.986532,185.060674 163.492705,176.570787 163.492705,176.570787 C163.492069,172.869388 166.36212,169.80338 170.051627,169.564045 C169.903479,169.564045 169.750842,169.564045 169.602694,169.564045 L169.602694,169.564045 C165.729882,169.564045 162.590348,172.707107 162.590348,176.58427 C162.590348,176.58427 159.084175,185.078652 162.590348,195.833708 C162.769921,196.382022 164.619529,196.534831 166.91807,196.51236 C165.050505,196.47191 163.636364,196.292135 163.492705,195.820225 Z" id="路径" fill="#FFFFFF" fill-rule="nonzero" opacity="0.2"></path>
            <path d="M162.590348,176.453933 C162.590348,176.453933 144.493827,163.770787 146.30303,147.689888 L150.37486,147.689888 C150.37486,147.689888 160.098765,168.773034 166.329966,170.795506 C172.561167,172.817978 162.590348,176.453933 162.590348,176.453933 Z" id="路径" fill="#00695C" fill-rule="nonzero"></path>
            <g id="编组" opacity="0.2" transform="translate(153.086420, 195.505618)" fill="#FFFFFF" fill-rule="nonzero">
                <path d="M17.4231201,8.05842697 L23.640853,28.5123596 L24.5387205,28.5123596 L18.2042649,7.67640449 C18.2042649,7.67640449 17.9124579,7.80224719 17.4231201,8.05842697 Z" id="路径"></path>
                <path d="M10.5185185,0.426966292 L9.62065095,0.426966292 C1.92134345,7.4374076 -1.46563092,18.0224636 0.731762065,28.2067416 L0.799102132,28.5123596 L1.6969697,28.5123596 L1.62962963,28.2067416 C-0.567763353,18.0224636 2.81921101,7.4374076 10.5185185,0.426966292 Z" id="路径"></path>
            </g>
            <path d="M146.98092,147.919101 L146.30303,147.919101 C144.507295,164 162.590348,176.683146 162.590348,176.683146 L163.039282,176.51236 C160.942761,174.961798 145.28844,162.930337 146.98092,147.919101 Z" id="路径" fill="#FFFFFF" fill-rule="nonzero" opacity="0.2"></path>
            <path d="M164.008979,157.694382 C164.399928,158.598221 164.674483,159.548163 164.826038,160.521348 C165.274972,162.489888 166.289562,164.453933 168.035915,165.465169 C169.003155,165.990423 170.078778,166.284244 171.178451,166.323596 C172.848485,166.426966 174.657688,166.103371 175.838384,164.916854 C176.57377,164.113046 177.067123,163.117439 177.261504,162.044944 C177.979272,158.825686 177.017513,155.46167 174.707071,153.110112 C172.324597,150.806696 168.834042,150.074603 165.728395,151.226966 C165.184697,151.493248 164.614365,151.701148 164.026936,151.847191 C163.114193,151.993558 162.187526,151.684881 161.544332,151.020225 C161.396643,151.498803 161.486148,152.019217 161.785212,152.420786 C162.084276,152.822355 162.55693,153.056782 163.057239,153.051685 C162.00926,153.555365 160.803962,153.620065 159.708193,153.231461 C160.346058,154.576702 161.912202,155.201904 163.299663,154.665169 C162.028887,155.231475 160.650084,155.51368 159.259259,155.492135 C159.551066,155.492135 160.121212,156.031461 160.47587,156.139326 C160.921185,156.210139 161.371845,156.24172 161.822671,156.233708 C162.760826,156.291463 163.595697,156.849241 164.008979,157.694382 L164.008979,157.694382 Z" id="路径" fill="#263238" fill-rule="nonzero"></path>
            <g id="编组" opacity="0.2" transform="translate(158.922559, 150.561798)" fill="#FFFFFF" fill-rule="nonzero">
                <path d="M4.15263749,2.48089888 C3.63298684,2.73283693 3.06819166,2.87801484 2.49158249,2.90786517 C3.22102184,2.94532318 3.94815512,2.79849669 4.60606061,2.48089888 C4.16226922,2.48355804 3.73769897,2.29979593 3.43561704,1.97430855 C3.13353512,1.64882117 2.98162485,1.21143679 3.01683502,0.768539326 C2.88154638,0.674076921 2.75530389,0.567252066 2.63973064,0.449438202 C2.4920413,0.928016459 2.58154618,1.4484302 2.88061027,1.84999949 C3.17967436,2.25156879 3.65232803,2.48599531 4.15263749,2.48089888 Z" id="路径"></path>
                <path d="M5.57126824,1.28988764 C6.15869747,1.14384482 6.72902971,0.935944333 7.27272727,0.669662921 C8.13138964,0.330289899 9.04339725,0.146161711 9.96632997,0.125842697 C8.89274933,0.0908868398 7.82335822,0.27594643 6.82379349,0.669662921 C6.28009593,0.935944333 5.70976369,1.14384482 5.12233446,1.28988764 C5.04152637,1.28988764 4.96071829,1.28988764 4.87991021,1.31685393 C5.1105626,1.3376562 5.34293171,1.32859269 5.57126824,1.28988764 Z" id="路径"></path>
                <path d="M1.98428732,5.58202247 C1.62962963,5.47865169 1.05948373,4.94382022 0.767676768,4.93483146 C2.15850154,4.95637654 3.53730406,4.67417129 4.80808081,4.10786517 C4.52295101,4.22558539 4.21855783,4.28957978 3.91021324,4.29662921 C2.7649606,4.73777412 1.54568728,4.9544383 0.318742985,4.93483146 C0.610549944,4.93483146 1.18069585,5.4741573 1.53535354,5.58202247 C1.84362777,5.65703151 2.16180265,5.68281746 2.47811448,5.65842697 C2.31092969,5.65408661 2.14498102,5.62841118 1.98428732,5.58202247 Z" id="路径"></path>
                <path d="M12.7182941,15.7662921 C11.6186207,15.7269409 10.5429976,15.4331197 9.57575758,14.9078652 C7.82940516,13.8876404 6.83277217,11.9235955 6.36588103,9.96404494 C6.21432588,8.99085947 5.93977057,8.04091812 5.54882155,7.13707865 C5.12844684,6.28733305 4.28162503,5.73189538 3.335578,5.68539326 C3.11142326,5.66863321 2.88633207,5.66863321 2.66217733,5.68539326 L2.88215488,5.68539326 C3.82820191,5.73189538 4.67502372,6.28733305 5.09539843,7.13707865 C5.48634745,8.04091812 5.76090276,8.99085947 5.91245791,9.96404494 C6.36139169,11.9325843 7.37598204,13.8966292 9.12233446,14.9078652 C10.0895745,15.4331197 11.1651976,15.7269409 12.2648709,15.7662921 C12.5252525,15.7662921 12.7856341,15.7662921 13.0505051,15.7662921 L12.7182941,15.7662921 Z" id="路径"></path>
                <path d="M3.62738496,4.27865169 C2.66244628,4.20883498 1.79792384,3.65606842 1.328844,2.80898876 C1.15072236,2.77104675 0.975265045,2.72150318 0.80359147,2.66067416 C1.31781308,3.73481562 2.44180491,4.3788406 3.62738496,4.27865169 L3.62738496,4.27865169 Z" id="路径"></path>
            </g>
            <path d="M146.751964,147.689888 C146.751964,147.689888 145.405163,146.557303 146.751964,144.516854 C147.114842,143.924533 147.739024,143.541918 148.430976,143.48764 C147.582178,143.387751 146.752414,143.789079 146.30303,144.516854 C144.956229,146.557303 146.30303,147.689888 146.30303,147.689888 C147.176944,147.885769 148.069659,147.985239 148.965208,147.986517 C148.220498,147.949497 147.480177,147.850276 146.751964,147.689888 L146.751964,147.689888 Z" id="路径" fill="#FFFFFF" fill-rule="nonzero" opacity="0.2"></path>
            <g id="编组" opacity="0.2" transform="translate(16.161616, 147.415730)" fill="url(#linearGradient-10)" fill-rule="nonzero">
                <path d="M0.485,0.425 L0.525,0.29 C0.525,0.29 0.015,0.19 0.485,0.425 Z" id="路径"></path>
            </g>
            <g id="编组" opacity="0.2" transform="translate(6.734007, 144.719101)" fill="url(#linearGradient-11)" fill-rule="nonzero">
                <path d="M52.1661055,10.611236 C52.1228559,10.4680235 52.0688292,10.3282977 52.0044893,10.1932584 C52.0044893,10.1483146 51.959596,10.1123596 51.9371493,10.0719101 C51.8964546,9.99165686 51.8514969,9.91364256 51.8024691,9.83820225 L51.7126824,9.72134831 C51.6662793,9.66046127 51.6168335,9.60195976 51.5645342,9.54606742 L51.4612795,9.44269663 C51.4074074,9.39325843 51.3535354,9.34831461 51.2996633,9.30786517 L51.1874299,9.22696629 L51.0078563,9.11910112 L50.8956229,9.06067416 L50.6936027,8.9752809 L50.5903479,8.93483146 C50.4945754,8.90187266 50.3973064,8.87490637 50.298541,8.85393258 L50.298541,8.85393258 C49.6453334,8.73028558 48.9732067,8.74867871 48.3277217,8.90786517 C48.3277217,8.90786517 46.4466891,11.6853933 47.1694725,12.6831461 L46.9315376,12.611236 C46.9315376,12.611236 32.956229,28.2247191 25.0729517,31.1235955 C24.872428,30.9857678 24.664422,30.8569288 24.4489338,30.7370787 L24.4489338,27.8157303 C24.4554979,27.6929718 24.4554979,27.5699496 24.4489338,27.447191 L24.4489338,27.447191 C24.4354165,27.3309102 24.415937,27.215402 24.3905724,27.1011236 L24.4489338,27.0696629 L24.6823793,26.9393258 L25.0190797,26.7325843 L25.2345679,26.5932584 C25.3961841,26.482397 25.5458287,26.3655431 25.6835017,26.2426966 L25.8585859,26.0898876 C25.96633,26 26.0695847,25.905618 26.1683502,25.8067416 L26.3479237,25.6314607 C26.4736251,25.5026217 26.5933408,25.3707865 26.7070707,25.2359551 L26.8327722,25.0831461 C26.9405163,24.9483146 27.043771,24.8104869 27.1425365,24.6696629 L27.2682379,24.4808989 C27.3580247,24.3430712 27.4433221,24.2022472 27.5241302,24.058427 L27.6049383,23.9191011 C27.7037037,23.7348315 27.7979798,23.541573 27.8787879,23.3438202 L27.9506173,23.1685393 C28.013468,23.0097378 28.0718294,22.8494382 28.1257015,22.6876404 C28.1257015,22.6292135 28.1661055,22.5752809 28.1795735,22.5168539 C28.2424242,22.305618 28.3007856,22.094382 28.345679,21.8741573 C28.345679,21.8292135 28.345679,21.788764 28.3681257,21.7438202 C28.4040404,21.5610487 28.4324729,21.3752809 28.4534231,21.1865169 C28.4534231,21.1235955 28.4534231,21.0606742 28.4534231,20.9977528 C28.4534231,20.7685393 28.4893378,20.5483146 28.4893378,20.3011236 C28.4895517,18.5523989 27.8905594,16.8565199 26.7923681,15.4966292 C27.3894501,14.5617978 27.7800224,14.0089888 27.7800224,14.0089888 C27.4208754,13.7617978 27.0662177,13.5370787 26.7160494,13.3168539 L26.3748597,13.1146067 C26.1414141,12.9752809 25.9259259,12.8359551 25.674523,12.7101124 L25.2839506,12.5033708 C25.0729517,12.3910112 24.8664422,12.2831461 24.6599327,12.1842697 L24.2603816,12 L23.6632997,11.7393258 L23.2727273,11.5820225 C23.0751964,11.505618 22.8776655,11.4337079 22.684624,11.3662921 L22.3164983,11.2404494 C22.1144781,11.1775281 21.9124579,11.1191011 21.714927,11.0651685 L21.3872054,10.9752809 C21.1627385,10.9213483 20.9382716,10.8764045 20.7182941,10.8314607 L20.4803591,10.7820225 C20.1795735,10.7280899 19.8832772,10.6876404 19.5824916,10.6606742 L19.5824916,10.6606742 C17.7454996,10.4636066 15.8889034,10.7486046 14.1952862,11.4876404 C14.285073,9.33932584 14.64422,7.56853933 15.3984287,6.47191011 L15.2143659,6.40898876 L15.1515152,6.47191011 C15.1515152,6.47191011 14.9315376,6.52134831 14.5858586,6.58426966 C14.4767709,6.75893382 14.379291,6.94060029 14.2940516,7.12808989 C14.4449452,6.36793654 14.7357081,5.64249865 15.1515152,4.98876404 L14.9674523,4.9258427 C15.2323232,4.65168539 16.1930415,3.46966292 14.9046016,1.53258427 C13.4231201,-0.687640449 10.71156,1.03820225 10.71156,1.03820225 C10.4965938,1.77135182 10.3552278,2.52414361 10.2895623,3.28539326 C10.0830527,3.2 9.9349046,3.13707865 9.84062851,3.08764045 C8.54161247,7.67672417 7.83404204,12.4132574 7.73512907,17.1820225 C2.84624018,24.1303371 0.826038159,34.3865169 0.430976431,36.5977528 L0.430976431,36.5977528 L0.399551066,36.7730337 L0.399551066,36.7730337 C0.372615039,36.9348315 0.359147026,37.0202247 0.359147026,37.0202247 L13.0684624,37.3168539 C13.0684624,37.3617978 13.0684624,37.4022472 13.0684624,37.447191 L13.0684624,57.5955056 L3.81593715,77.1865169 C3.81593715,77.1865169 7.335578,77.2988764 12.6329966,77.9775281 L11.1694725,88.4539326 L11.1694725,88.4539326 L10.6801347,91.3932584 L19.4882155,91.3932584 C20.4668911,89.4337079 15.5735129,88.4539326 15.5735129,88.4539326 L15.4657688,88.4539326 L17.3737374,78.6786517 C18.2177329,78.8194757 19.0856715,78.9692884 19.9775533,79.1280899 C21.2851662,79.381294 22.6105818,79.5315663 23.9416386,79.5775281 L23.9416386,79.5775281 C25.0435909,79.6160849 26.1468664,79.5679972 27.2413019,79.4337079 C27.8877666,84.7325843 27.0392817,87.8966292 26.8776655,88.4224719 L26.8282828,88.4224719 L26.338945,91.3617978 L35.1470258,91.3617978 C36,89.6539326 32.3905724,88.6876404 31.4523008,88.4719101 L31.4927048,88.1842697 C31.9457476,84.8787803 32.0615708,81.5357121 31.8383838,78.2067416 C32.974968,77.7455789 34.0346607,77.1135956 34.9809203,76.3325843 L34.9809203,76.3325843 L35.1021324,76.2247191 L35.1021324,76.2247191 L35.1380471,76.188764 L28.5791246,57.7617978 C29.8047138,52.5483146 25.5398429,47.0741573 27.8159371,44.3370787 C30.0920314,41.6 28.7138047,38.1078652 28.4444444,37.5101124 C34.6038159,34.8134831 47.0527497,28.0719101 50.5454545,16.3865169 C50.8019832,15.5649389 51.0103442,14.7290577 51.1694725,13.8831461 C51.1694725,13.8831461 52.9292929,13.1685393 52.1661055,10.611236 Z" id="路径"></path>
            </g>
            <path d="M17.993266,151.217978 C17.993266,151.217978 11.3176207,172.301124 22.5140292,183.973034 L25.7463524,181.496629 C25.7463524,181.496629 19.1290685,158.485393 22.8327722,153.083146 C16.2962963,150.903371 17.993266,151.217978 17.993266,151.217978 Z" id="路径" fill="#FF5252" fill-rule="nonzero"></path>
            <path d="M22.6083053,153.078652 C22.6083053,153.078652 23.9551066,151.946067 22.6083053,149.905618 C21.2615039,147.865169 18.7609428,149.45618 18.7609428,149.45618 C18.7609428,149.45618 17.8630752,152.4 18.7609428,153.078652 C19.6588103,153.757303 22.6083053,153.078652 22.6083053,153.078652 Z" id="路径" fill="#F6B9AD" fill-rule="nonzero"></path>
            <rect id="矩形" fill="#F6B9AD" fill-rule="nonzero" transform="translate(28.150393, 175.557303) rotate(180.000000) translate(-28.150393, -175.557303) " x="24.983165" y="170.858427" width="6.33445567" height="9.39775281" rx="3.16722783"></rect>
            <path d="M25.2929293,182.853933 C25.2929293,182.853933 18.7564534,160.125843 22.3164983,154.539326 C22.630752,154.480899 22.8327722,154.435955 22.8327722,154.435955 L22.8911336,154.382022 L23.0572391,154.435955 C19.3535354,159.829213 25.9708193,182.849438 25.9708193,182.849438 L22.7384961,185.325843 L22.4556678,185.020225 L25.2929293,182.853933 Z" id="路径" fill="#FFFFFF" fill-rule="nonzero" opacity="0.2"></path>
            <ellipse id="椭圆形" fill="#F6B9AD" fill-rule="nonzero" cx="28.0359147" cy="167.123596" rx="7.01234568" ry="7.02022472"></ellipse>
            <path d="M30.5274972,177.08764 L30.5274972,174.031461 C30.5272384,173.807812 30.5031592,173.584829 30.4556678,173.366292 C33.2708137,171.91883 34.7686583,168.763017 34.1115077,165.663793 C33.4543571,162.564568 30.805086,160.290074 27.6453423,160.112359 L28.040404,160.112359 C31.2779804,160.11134 34.0953901,162.329408 34.8577665,165.479479 C35.6201428,168.62955 34.129278,171.892646 31.2502806,173.375281 C31.297772,173.593817 31.3218512,173.816801 31.32211,174.040449 L31.32211,177.096629 C31.3303757,178.009653 30.9420214,178.881234 30.2578906,179.485049 C29.5737598,180.088865 28.6613465,180.365345 27.7575758,180.242697 C29.3415893,180.037168 30.5272096,178.686697 30.5274972,177.08764 Z" id="路径" fill="#FFFFFF" fill-rule="nonzero" opacity="0.2"></path>
            <path d="M20.9113356,202.11236 C20.9113356,202.11236 34.4377104,203.640449 34.9360269,202.11236 C36.5521886,197.168539 32.2424242,191.824719 34.3973064,189.213483 C36.6419753,186.516854 34.9360269,182.862921 34.9360269,182.862921 C34.9360269,178.985758 31.7964928,175.842697 27.9236813,175.842697 L27.9236813,175.842697 C24.0508697,175.842697 20.9113356,178.985758 20.9113356,182.862921 L20.9113356,202.11236 Z" id="路径" fill="#FF5252" fill-rule="nonzero"></path>
            <path d="M34.4152637,189.213483 C36.6599327,186.516854 34.9539843,182.862921 34.9539843,182.862921 C34.9539843,178.985758 31.8144502,175.842697 27.9416386,175.842697 C27.7890011,175.842697 27.640853,175.842697 27.4927048,175.865169 C31.1815489,176.099853 34.0540862,179.162484 34.0561167,182.862921 C34.0561167,182.862921 35.7620651,186.516854 33.5173962,189.213483 C31.3445567,191.824719 35.6722783,197.164045 34.0561167,202.11236 C33.9034792,202.58427 32.5072952,202.764045 30.6531987,202.791011 C32.9382716,202.813483 34.7789001,202.660674 34.9539843,202.11236 C36.5881033,197.159551 32.2424242,191.824719 34.4152637,189.213483 Z" id="路径" fill="#FFFFFF" fill-rule="nonzero" opacity="0.2"></path>
            <path d="M32.0673401,201.662921 L32.0673401,201.662921 C37.0056117,208.669663 39.1919192,219.258427 37.7777778,229.442697 L37.7373737,229.748315 L33.5218855,229.748315 C33.5218855,229.748315 34.8282828,225.896629 33.5218855,219.105618 C32.7211429,215.034221 30.4440272,211.403392 27.1290685,208.91236 L23.0617284,229.748315 L19.1380471,229.748315 L23.0617284,201.662921 L32.0673401,201.662921 Z" id="路径" fill="#F6B9AD" fill-rule="nonzero"></path>
            <path d="M55.8428732,161.27191 C55.8428732,161.27191 57.4725028,160.588764 56.7721661,158.238202 C56.0718294,155.88764 53.2255892,156.678652 53.2255892,156.678652 C53.2255892,156.678652 51.4971942,159.226966 52.1661055,160.14382 C52.8350168,161.060674 55.8428732,161.27191 55.8428732,161.27191 Z" id="路径" fill="#F6B9AD" fill-rule="nonzero"></path>
            <path d="M31.8473625,183.995506 C31.8473625,183.995506 52.8619529,177.177528 55.8383838,161.27191 L51.9461279,160.076404 C51.9461279,160.076404 36.4803591,177.361798 29.9483726,177.483146 C23.4163861,177.604494 31.8473625,183.995506 31.8473625,183.995506 Z" id="路径" fill="#FF5252" fill-rule="nonzero"></path>
            <path d="M55.1245791,161.289888 L55.7755331,161.48764 C52.7991021,177.393258 31.7845118,184.211236 31.7845118,184.211236 L31.4118967,183.919101 C33.8945006,183.05618 52.3501684,176.125843 55.1245791,161.289888 Z" id="路径" fill="#FFFFFF" fill-rule="nonzero" opacity="0.2"></path>
            <g id="编组" opacity="0.2" transform="translate(21.997755, 201.348315)" fill="#FFFFFF" fill-rule="nonzero">
                <path d="M4.22895623,7.56404494 L0.161616162,28.4 L1.05948373,28.4 L5.01010101,8.1752809 C4.76028566,7.95835231 4.49956433,7.75434115 4.22895623,7.56404494 L4.22895623,7.56404494 Z" id="路径"></path>
                <path d="M10.0695847,0.314606742 L9.17171717,0.314606742 C14.1099888,7.32134831 16.2962963,17.9101124 14.8821549,28.094382 L14.8417508,28.4 L15.7396184,28.4 L15.7800224,28.094382 C17.1941639,17.9101124 15.016835,7.32134831 10.0695847,0.314606742 Z" id="路径"></path>
            </g>
            <path d="M55.4074074,161.132584 C55.4074074,161.132584 57.037037,160.449438 56.3367003,158.098876 C56.1641493,157.425789 55.6801507,156.876084 55.0347924,156.620225 C55.8756026,156.773975 56.5513362,157.401396 56.7676768,158.229213 C57.4680135,160.575281 55.8383838,161.262921 55.8383838,161.262921 C54.9460766,161.194705 54.0639071,161.028924 53.2076319,160.768539 C53.9295075,160.950893 54.6653156,161.072663 55.4074074,161.132584 Z" id="路径" fill="#FFFFFF" fill-rule="nonzero" opacity="0.2"></path>
            <path d="M20.9113356,201.348315 L12.3815937,219.325843 C17.3560627,219.574244 22.3067166,220.174997 27.1964085,221.123596 C36.624018,222.921348 41.1133558,218.426966 41.1133558,218.426966 L35.030303,201.348315 L20.9113356,201.348315 Z" id="路径" fill="#263238" fill-rule="nonzero"></path>
            <path d="M23.1739618,229.662921 C23.1739618,229.662921 27.6632997,230.561798 26.7654321,232.359551 L18.684624,232.359551 L19.1335578,229.662921 L23.1739618,229.662921 Z" id="路径" fill="#FF5252" fill-rule="nonzero"></path>
            <path d="M37.5398429,229.662921 C37.5398429,229.662921 42.0291807,230.561798 41.1313131,232.359551 L33.0505051,232.359551 L33.4994388,229.662921 L37.5398429,229.662921 Z" id="路径" fill="#FF5252" fill-rule="nonzero"></path>
            <path d="M34.3973064,161.348315 C34.3973064,161.348315 23.6228956,176.629213 28.5611672,182.921348 L9.25701459,182.47191 C9.25701459,182.47191 14.64422,147.865169 34.3973064,161.348315 Z" id="路径" fill="#FCCC63" fill-rule="nonzero"></path>
            <path d="M34.3973064,161.348315 C31.6139169,159.447191 29.1178451,158.503371 26.8776655,158.283146 C28.7610274,158.875468 30.5406982,159.757963 32.1526375,160.898876 C32.1526375,160.898876 21.3782267,176.179775 26.3164983,182.47191 L9.32435466,182.076404 C9.27946128,182.332584 9.25701459,182.47191 9.25701459,182.47191 L28.5611672,182.921348 C23.6228956,176.629213 34.3973064,161.348315 34.3973064,161.348315 Z" id="路径" fill="#FFFFFF" fill-rule="nonzero" opacity="0.2"></path>
            <path d="M35.0527497,201.348315 L33.7059484,201.348315 L39.7890011,218.426966 C39.7890011,218.426966 36.8888889,221.325843 30.8552189,221.532584 C37.8002245,221.757303 41.1358025,218.426966 41.1358025,218.426966 L35.0527497,201.348315 Z" id="路径" fill="#FFFFFF" fill-rule="nonzero" opacity="0.2"></path>
            <path d="M23.1739618,229.662921 L22.2760943,229.662921 C22.2760943,229.662921 26.7654321,230.561798 25.8675645,232.359551 L26.7654321,232.359551 C27.6632997,230.561798 23.1739618,229.662921 23.1739618,229.662921 Z" id="路径" fill="#FFFFFF" fill-rule="nonzero" opacity="0.2"></path>
            <path d="M37.5398429,229.662921 L36.6419753,229.662921 C36.6419753,229.662921 41.1313131,230.561798 40.2334456,232.359551 L41.1313131,232.359551 C42.0291807,230.561798 37.5398429,229.662921 37.5398429,229.662921 Z" id="路径" fill="#FFFFFF" fill-rule="nonzero" opacity="0.2"></path>
            <rect id="矩形" fill="#F5F5F5" fill-rule="nonzero" x="224.74523" y="75.3617978" width="171.941639" height="6.51685393"></rect>
            <rect id="矩形" fill="url(#linearGradient-12)" fill-rule="nonzero" x="221.324355" y="73.2808989" width="178.675645" height="222.921348"></rect>
            <rect id="矩形" fill="#FFFFFF" fill-rule="nonzero" x="224.74523" y="81.8786517" width="171.941639" height="206.516854"></rect>
            <ellipse id="椭圆形" fill="#FF5252" fill-rule="nonzero" cx="228.731762" cy="78.7325843" rx="1.57126824" ry="1.57303371"></ellipse>
            <ellipse id="椭圆形" fill="#FFFF00" fill-rule="nonzero" cx="233.050505" cy="78.7325843" rx="1.57126824" ry="1.57303371"></ellipse>
            <ellipse id="椭圆形" fill="#69F0AE" fill-rule="nonzero" cx="237.373737" cy="78.7325843" rx="1.57126824" ry="1.57303371"></ellipse>
            <g id="编组" opacity="0.2" transform="translate(235.241302, 90.786517)" fill="#00BFA6" fill-rule="nonzero">
                <rect id="矩形" x="0.278338945" y="0.305617978" width="150.841751" height="4.04494382"></rect>
            </g>
            <rect id="矩形" fill="url(#linearGradient-13)" fill-rule="nonzero" x="234.621773" y="108.620225" width="65.0953984" height="69.2134831"></rect>
            <rect id="矩形" fill="#FFFFFF" fill-rule="nonzero" x="235.968575" y="110.867416" width="62.4017957" height="64.7191011"></rect>
            <rect id="矩形" fill="url(#linearGradient-13)" fill-rule="nonzero" x="321.265993" y="143.226966" width="65.0953984" height="69.2134831"></rect>
            <rect id="矩形" fill="#FFFFFF" fill-rule="nonzero" x="322.612795" y="145.474157" width="62.4017957" height="64.7191011"></rect>
            <rect id="矩形" fill="url(#linearGradient-14)" fill-rule="nonzero" x="235.968575" y="228.620225" width="153.08642" height="47.6404494"></rect>
            <rect id="矩形" fill="#00BFA6" fill-rule="nonzero" opacity="0.5" x="239.111111" y="231.766292" width="147.250281" height="42.6966292"></rect>
            <polygon id="路径" fill="#FFFFFF" fill-rule="nonzero" opacity="0.5" points="242.702581 235.811236 386.361392 235.811236 386.361392 231.766292 239.111111 231.766292 239.111111 274.462921 242.702581 274.462921"></polygon>
            <path d="M288.031425,125.047191 C279.243554,114.821084 264.400817,112.365428 252.793817,119.217306 C241.186818,126.069183 236.149217,140.260659 240.834232,152.908776 C245.519246,165.556893 258.581286,173.028971 271.84435,170.647966 C285.107415,168.26696 294.762202,156.716724 294.765452,143.226966 C294.773431,136.554248 292.383205,130.101364 288.031425,125.047191 L288.031425,125.047191 Z M276.808081,159.865169 C269.274154,164.33432 259.679056,163.166504 253.434216,157.020343 C247.189377,150.874183 245.859454,141.289609 250.194494,133.672119 C254.529534,126.054628 263.443385,122.312796 271.908826,124.556936 C280.374268,126.801076 286.270266,134.468915 286.271697,143.235955 C286.292729,150.065213 282.696247,156.393924 276.821549,159.865169 L276.808081,159.865169 Z" id="形状" fill="url(#linearGradient-15)" fill-rule="nonzero"></path>
            <path d="M280.8844,131.208989 L287.012346,125.92809 C281.98781,120.07041 274.657421,116.70318 266.945006,116.710102 L266.945006,124.8 C272.302826,124.798529 277.394155,127.139396 280.8844,131.208989 L280.8844,131.208989 Z" id="路径" fill="#FF5252" fill-rule="nonzero"></path>
            <path d="M266.945006,161.649438 C264.324219,161.650816 261.733743,161.088302 259.349046,160 L256.013468,167.375281 C263.897709,170.955068 273.031826,170.451615 280.47587,166.026966 L276.345679,159.065169 C273.503373,160.762183 270.254396,161.655335 266.945006,161.649438 L266.945006,161.649438 Z" id="路径" fill="#69F0AE" fill-rule="nonzero"></path>
            <path d="M293.43212,143.222472 C293.440125,136.870861 291.160904,130.729196 287.012346,125.923596 L280.8844,131.204494 C284.446515,135.327282 285.998748,140.819348 285.122437,146.199397 C284.246127,151.579445 281.031532,156.293338 276.345679,159.069663 L280.47587,166.031461 C288.51274,161.2503 293.436755,152.581745 293.43212,143.222472 Z" id="路径" fill="#FF9800" fill-rule="nonzero"></path>
            <path d="M248.538721,143.222472 C248.538721,133.045539 256.779495,124.795506 266.945006,124.795506 L266.945006,116.705618 C254.471769,116.705618 243.689027,125.418547 241.055731,137.624349 C238.422436,149.830152 244.652252,162.221253 256.013468,167.375281 L259.349046,160 C252.769319,157.015626 248.541516,150.454113 248.538721,143.222472 L248.538721,143.222472 Z" id="路径" fill="#00BFA6" fill-rule="nonzero"></path>
            <rect id="矩形" fill="url(#linearGradient-16)" fill-rule="nonzero" x="331.142536" y="154.91236" width="47.5869809" height="8.08988764"></rect>
            <rect id="矩形" fill="#00BFA6" fill-rule="nonzero" x="331.59147" y="155.361798" width="46.6891134" height="7.19101124"></rect>
            <rect id="矩形" fill="#FF5252" fill-rule="nonzero" x="331.59147" y="167.496629" width="34.1189675" height="7.19101124"></rect>
            <rect id="矩形" fill="#69F0AE" fill-rule="nonzero" x="331.59147" y="179.631461" width="23.3445567" height="7.19101124"></rect>
            <rect id="矩形" fill="#FF9800" fill-rule="nonzero" x="331.59147" y="191.766292" width="42.1997755" height="7.19101124"></rect>
            <rect id="矩形" fill="#F5F5F5" fill-rule="nonzero" x="235.968575" y="188.620225" width="66.8911336" height="4.04494382"></rect>
            <rect id="矩形" fill="#F5F5F5" fill-rule="nonzero" x="235.968575" y="195.361798" width="37.7104377" height="4.04494382"></rect>
            <rect id="矩形" fill="#F5F5F5" fill-rule="nonzero" x="280.413019" y="195.361798" width="13.0190797" height="4.04494382"></rect>
            <rect id="矩形" fill="#F5F5F5" fill-rule="nonzero" x="280.413019" y="210.193258" width="13.0190797" height="4.04494382"></rect>
            <rect id="矩形" fill="#F5F5F5" fill-rule="nonzero" x="235.968575" y="208.844944" width="37.7104377" height="4.04494382"></rect>
            <rect id="矩形" fill="#F5F5F5" fill-rule="nonzero" x="235.968575" y="202.103371" width="66.8911336" height="4.04494382"></rect>
            <rect id="矩形" fill="#F5F5F5" fill-rule="nonzero" x="320.368126" y="109.069663" width="66.8911336" height="4.04494382"></rect>
            <rect id="矩形" fill="#F5F5F5" fill-rule="nonzero" x="320.368126" y="115.811236" width="37.7104377" height="4.04494382"></rect>
            <rect id="矩形" fill="#F5F5F5" fill-rule="nonzero" x="364.81257" y="115.811236" width="13.0190797" height="4.04494382"></rect>
            <rect id="矩形" fill="#F5F5F5" fill-rule="nonzero" x="364.81257" y="130.642697" width="13.0190797" height="4.04494382"></rect>
            <rect id="矩形" fill="#F5F5F5" fill-rule="nonzero" x="320.368126" y="129.294382" width="37.7104377" height="4.04494382"></rect>
            <rect id="矩形" fill="#F5F5F5" fill-rule="nonzero" x="320.368126" y="122.552809" width="66.8911336" height="4.04494382"></rect>
            <ellipse id="椭圆形" fill="url(#linearGradient-17)" fill-rule="nonzero" cx="341.468013" cy="309.519101" rx="4.9382716" ry="4.94382022"></ellipse>
            <ellipse id="椭圆形" fill="#FF5252" fill-rule="nonzero" cx="341.468013" cy="309.519101" rx="3.59147026" ry="3.59550562"></ellipse>
            <rect id="矩形" fill="url(#linearGradient-18)" fill-rule="nonzero" x="195.564534" y="254.68764" width="154.433221" height="54.3820225"></rect>
            <rect id="矩形" fill="#FFFFFF" fill-rule="nonzero" x="200.053872" y="256.934831" width="147.250281" height="42.6966292"></rect>
            <line x1="204.992144" y1="291.541573" x2="341.468013" y2="291.541573" id="路径" stroke="#00BFA6" stroke-width="3" fill="url(#linearGradient-19)" fill-rule="nonzero"></line>
            <rect id="矩形" fill="url(#linearGradient-20)" fill-rule="nonzero" x="206.338945" y="265.474157" width="20.2020202" height="24.7191011"></rect>
            <rect id="矩形" fill="#00BFA6" fill-rule="nonzero" x="207.461279" y="266.597753" width="17.9573513" height="22.9213483"></rect>
            <rect id="矩形" fill="#69F0AE" fill-rule="nonzero" x="319.919192" y="283.002247" width="17.9573513" height="7.19101124"></rect>
            <rect id="矩形" fill="#FF9800" fill-rule="nonzero" x="286.249158" y="273.564045" width="17.9573513" height="16.1797753"></rect>
            <rect id="矩形" fill="#FF5252" fill-rule="nonzero" x="246.742985" y="276.260674" width="17.9573513" height="13.4831461"></rect>
            <rect id="矩形" fill="#FF5252" fill-rule="nonzero" x="200.053872" y="299.631461" width="147.250281" height="6.29213483"></rect>
            <ellipse id="椭圆形" fill="url(#linearGradient-17)" fill-rule="nonzero" cx="206.338945" cy="309.519101" rx="4.9382716" ry="4.94382022"></ellipse>
            <ellipse id="椭圆形" fill="#FF5252" fill-rule="nonzero" cx="206.338945" cy="309.519101" rx="3.59147026" ry="3.59550562"></ellipse>
            <rect id="矩形" fill="#FF5252" fill-rule="nonzero" x="196.462402" y="258.732584" width="3.59147026" height="47.1910112"></rect>
            <rect id="矩形" fill="#000000" fill-rule="nonzero" opacity="0.2" x="196.462402" y="258.732584" width="3.59147026" height="47.1910112"></rect>
            <path d="M200.291807,263.748315 C200.291807,263.698876 200.291807,263.653933 200.291807,263.604494 C200.291807,263.555056 200.291807,263.45618 200.291807,263.38427 C200.291807,263.31236 200.291807,263.289888 200.264871,263.244944 C200.237935,263.2 200.233446,263.110112 200.210999,263.047191 C200.188552,262.98427 200.184063,262.961798 200.166105,262.916854 C200.148148,262.87191 200.112233,262.791011 200.085297,262.72809 L200.031425,262.61573 C199.995511,262.552809 199.955107,262.489888 199.914703,262.431461 L199.856341,262.346067 C199.797462,262.265036 199.734531,262.187034 199.667789,262.11236 L199.667789,262.11236 L199.667789,262.11236 C199.309754,261.730329 198.88535,261.416618 198.415264,261.186517 C198.783028,260.790964 199.057615,260.31796 199.218855,259.802247 C199.265362,259.664345 199.30138,259.523118 199.326599,259.379775 C199.326599,259.334831 199.326599,259.289888 199.326599,259.249438 C199.338707,259.163008 199.346199,259.075993 199.349046,258.988764 C199.349046,258.939326 199.349046,258.894382 199.349046,258.844944 C199.349046,258.795506 199.349046,258.696629 199.349046,258.624719 C199.349046,258.552809 199.349046,258.530337 199.32211,258.485393 C199.295174,258.440449 199.290685,258.350562 199.268238,258.28764 C199.245791,258.224719 199.241302,258.202247 199.223345,258.157303 C199.205387,258.11236 199.169473,258.031461 199.142536,257.968539 L199.088664,257.85618 C199.05275,257.793258 199.012346,257.730337 198.971942,257.67191 L198.91358,257.586517 C198.854701,257.505485 198.79177,257.427483 198.725028,257.352809 L198.725028,257.352809 L198.725028,257.352809 C198.277242,256.882954 197.733699,256.515076 197.131313,256.274157 C197.131313,256.274157 194.280584,257.330337 194.092031,258.489888 C192,258.939326 179.806958,261.478652 171.434343,261.276404 L171.371493,261.110112 C171.372618,258.346767 169.847077,255.809413 167.407407,254.516854 L167.407407,251.694382 C167.413814,251.574618 167.413814,251.454596 167.407407,251.334831 L167.407407,251.334831 C167.395371,251.220117 167.377389,251.106105 167.353535,250.993258 L167.407407,250.961798 L167.636364,250.835955 L167.968575,250.633708 L168.179574,250.494382 C168.335204,250.386517 168.484848,250.272659 168.628507,250.152809 L168.799102,250.004494 C168.902357,249.914607 169.001122,249.824719 169.099888,249.730337 L169.274972,249.559551 C169.397681,249.433708 169.514403,249.304869 169.62514,249.173034 L169.746352,249.020225 C169.851104,248.88839 169.951366,248.753558 170.047138,248.61573 L170.16835,248.431461 C170.255144,248.296629 170.338945,248.158801 170.419753,248.017978 L170.496072,247.883146 C170.594837,247.703371 170.684624,247.514607 170.765432,247.325843 L170.832772,247.155056 C170.895623,247.002247 170.952488,246.852434 171.003367,246.705618 L171.057239,246.539326 C171.12009,246.332584 171.173962,246.125843 171.218855,245.914607 C171.218855,245.874157 171.218855,245.829213 171.241302,245.788764 C171.274224,245.608989 171.30116,245.427715 171.32211,245.244944 C171.32211,245.182022 171.32211,245.123596 171.32211,245.060674 C171.32211,244.835955 171.358025,244.611236 171.358025,244.382022 C171.357912,243.104904 171.028547,241.849433 170.401796,240.737079 C170.882155,240.620225 171.173962,240.525843 171.138047,240.480899 C170.953984,240.233708 170.769921,240 170.57688,239.775281 L170.392817,239.564045 C170.258137,239.411236 170.127946,239.267416 169.993266,239.114607 L169.777778,238.894382 C169.643098,238.759551 169.508418,238.633708 169.373737,238.51236 L169.162738,238.323596 C168.992144,238.179775 168.821549,238.040449 168.650954,237.905618 L168.538721,237.81573 C168.332211,237.662921 168.125701,237.519101 167.914703,237.366292 L167.681257,237.222472 C167.546577,237.137079 167.407407,237.05618 167.268238,236.98427 L166.989899,236.840449 L166.603816,236.65618 L166.320988,236.530337 C166.186308,236.47191 166.047138,236.422472 165.907969,236.373034 L165.652076,236.278652 C165.445567,236.211236 165.239057,236.148315 165.032548,236.094382 L164.713805,236.022472 L164.368126,235.950562 L164.022447,235.896629 L163.703704,235.860674 L163.349046,235.829213 L163.043771,235.829213 L162.689113,235.829213 C162.494575,235.829213 162.300037,235.838202 162.105499,235.85618 L162.105499,235.85618 C157.512907,236.233708 153.49046,240.247191 153.49046,246.642697 L153.49046,251.919101 L160.673401,251.919101 L160.673401,254.319101 C158.037297,255.536668 156.348138,258.176752 156.345679,261.083146 L156.345679,281.537079 L150.249158,309.577528 L150.16835,309.577528 L148.969697,314.930337 L157.571268,316.323596 L157.571268,316.323596 L157.943883,316.382022 C158.841751,315.995506 157.337823,314.18427 156.659933,312.786517 C156.590689,312.640636 156.530712,312.490525 156.480359,312.337079 C156.385669,312.055157 156.328315,311.762021 156.309764,311.465169 L162.91807,289.761798 L162.886644,289.761798 L163.043771,289.253933 C163.043771,289.253933 171.45679,292.849438 173.620651,300.080899 C175.375982,305.923596 174.285073,309.725843 173.809203,310.957303 L173.777778,310.957303 L173.777778,311.029213 C173.683502,311.262921 173.616162,311.393258 173.616162,311.393258 L173.777778,311.393258 L173.777778,315.361798 L182.873176,315.361798 C183.717172,314.934831 181.925926,313.689888 181.032548,312.665169 C180.740065,312.340376 180.53599,311.945698 180.439955,311.519101 L180.592593,311.519101 L180.664422,311.195506 C182.990961,300.377359 179.428994,289.13413 171.299663,281.635955 C171.316268,281.612278 171.329842,281.586609 171.340067,281.559551 C172.198512,278.929561 172.727805,276.203131 172.915825,273.442697 C179.869809,274.107865 189.122334,273.631461 196.040404,268.265169 C196.70075,267.765622 197.3318,267.228402 197.930415,266.65618 C198.527497,266.611236 199.573513,266.278652 200.152637,264.588764 C200.199144,264.450862 200.235162,264.309635 200.260382,264.166292 C200.260382,264.121348 200.260382,264.076404 200.260382,264.035955 C200.276499,263.940777 200.286992,263.84473 200.291807,263.748315 Z" id="路径" fill="url(#linearGradient-21)" fill-rule="nonzero"></path>
            <path d="M163.856341,271.667416 C163.856341,271.667416 184.911336,278.368539 196.574635,267.173034 L194.10101,263.932584 C194.10101,263.932584 171.474747,268.979775 166.083053,265.280899 C160.691358,261.582022 163.856341,271.667416 163.856341,271.667416 Z" id="路径" fill="#00BFA6" fill-rule="nonzero"></path>
            <path d="M195.982043,266.750562 L196.395062,267.289888 C184.722783,278.489888 163.676768,271.78427 163.676768,271.78427 C163.676768,271.78427 163.622896,271.613483 163.542088,271.334831 C166.051627,272.085393 185.099888,277.213483 195.982043,266.750562 Z" id="路径" fill="#FFFFFF" fill-rule="nonzero" opacity="0.2"></path>
            <path d="M196.125701,267.168539 C196.125701,267.168539 197.849607,267.559551 198.64422,265.244944 C199.438833,262.930337 196.668911,261.910112 196.668911,261.910112 C196.668911,261.910112 193.782267,262.975281 193.791225,264.107865 C193.800224,265.240449 196.125701,267.168539 196.125701,267.168539 Z" id="路径" fill="#985454" fill-rule="nonzero"></path>
            <path d="M195.851852,266.804494 C195.851852,266.804494 197.575758,267.195506 198.37037,264.880899 C198.619995,264.232967 198.544901,263.504579 198.16835,262.921348 C198.76384,263.536023 198.949443,264.440537 198.64422,265.240449 C197.849607,267.559551 196.125701,267.164045 196.125701,267.164045 C195.440421,266.587841 194.820193,265.93828 194.276094,265.226966 C194.756656,265.795723 195.283733,266.323393 195.851852,266.804494 Z" id="路径" fill="#FFFFFF" fill-rule="nonzero" opacity="0.2"></path>
            <path d="M173.82716,308.885393 L180.062851,308.885393 C180.016145,309.480443 180.230886,310.066311 180.650954,310.489888 C181.49046,311.460674 183.178451,312.633708 182.383838,313.033708 L173.82716,313.033708 L173.82716,308.885393 Z" id="4635430b-7803-4f1f-9770-b56b2b482545" fill="#00BFA6" fill-rule="nonzero"></path>
            <path d="M180.197531,310.489888 C179.777463,310.066311 179.562722,309.480443 179.609428,308.885393 L180.058361,308.885393 C180.011656,309.480443 180.226397,310.066311 180.646465,310.489888 C181.485971,311.460674 183.173962,312.633708 182.379349,313.033708 L181.930415,313.033708 C182.725028,312.633708 181.037037,311.465169 180.197531,310.489888 Z" id="路径" fill="#FFFFFF" fill-rule="nonzero" opacity="0.2"></path>
            <path d="M151.618406,307.6 L157.454545,308.557303 C157.293181,309.253032 157.387195,309.983657 157.719416,310.61573 C158.356902,311.964045 159.789001,313.644944 158.927048,314.008989 L150.478114,312.660674 L151.618406,307.6 Z" id="a892faa3-7b18-4010-9d55-72c2aac7ddb8" fill="#00BFA6" fill-rule="nonzero"></path>
            <path d="M157.274972,310.611236 C156.942751,309.979163 156.848737,309.248538 157.010101,308.552809 L151.600449,307.653933 L151.600449,307.582022 L157.436588,308.539326 C157.275224,309.235054 157.369238,309.96568 157.701459,310.597753 C158.338945,311.946067 159.771044,313.626966 158.909091,313.991011 L158.554433,313.932584 C159.218855,313.492135 157.885522,311.878652 157.274972,310.611236 Z" id="路径" fill="#FFFFFF" fill-rule="nonzero" opacity="0.2"></path>
            <rect id="矩形" fill="#985454" fill-rule="nonzero" transform="translate(164.626263, 254.658427) rotate(180.000000) translate(-164.626263, -254.658427) " x="161.459035" y="249.959551" width="6.33445567" height="9.39775281" rx="3.16722783"></rect>
            <ellipse id="椭圆形" fill="#985454" fill-rule="nonzero" cx="164.511785" cy="246.224719" rx="7.01234568" ry="7.02022472"></ellipse>
            <path d="M167.003367,256.188764 L167.003367,253.132584 C167.003108,252.908936 166.979029,252.685952 166.931538,252.467416 C169.746684,251.019954 171.244528,247.864141 170.587378,244.764916 C169.930227,241.665692 167.280956,239.391198 164.121212,239.213483 L164.516274,239.213483 C167.75385,239.212464 170.57126,241.430532 171.333636,244.580603 C172.096013,247.730673 170.605148,250.993769 167.72615,252.476404 C167.773642,252.694941 167.797721,252.917924 167.79798,253.141573 L167.79798,256.197753 C167.806246,257.110777 167.417891,257.982357 166.73376,258.586173 C166.04963,259.189989 165.137216,259.466469 164.233446,259.34382 C165.817459,259.138292 167.003079,257.787821 167.003367,256.188764 L167.003367,256.188764 Z" id="路径" fill="#FFFFFF" fill-rule="nonzero" opacity="0.2"></path>
            <path d="M157.387205,281.213483 C157.387205,281.213483 170.91358,282.741573 171.411897,281.213483 C174.91807,270.453933 171.411897,261.964045 171.411897,261.964045 C171.411897,258.086882 168.272363,254.94382 164.399551,254.94382 L164.399551,254.94382 C160.526739,254.94382 157.387205,258.086882 157.387205,261.964045 L157.387205,281.213483 Z" id="路径" fill="#00BFA6" fill-rule="nonzero"></path>
            <path d="M157.387205,281.213483 L151.277217,309.298876 L157.387205,309.298876 L163.721661,288.462921 C163.721661,288.462921 171.640853,291.860674 173.674523,298.65618 C175.708193,305.451685 173.674523,309.298876 173.674523,309.298876 L180.246914,309.298876 L180.314254,308.993258 C182.511647,298.80898 179.124672,288.223924 171.425365,281.213483 L171.425365,281.213483" id="路径" fill="#263238" fill-rule="nonzero"></path>
            <path d="M170.621773,281.213483 C174.127946,270.453933 170.621773,261.964045 170.621773,261.964045 C170.622409,258.262646 167.752358,255.196638 164.062851,254.957303 C164.210999,254.957303 164.363636,254.957303 164.511785,254.957303 L164.511785,254.957303 C168.384596,254.957303 171.52413,258.100365 171.52413,261.977528 C171.52413,261.977528 175.030303,270.47191 171.52413,281.226966 C171.344557,281.775281 169.494949,281.92809 167.196409,281.905618 C169.063973,281.865169 170.469136,281.685393 170.621773,281.213483 Z" id="路径" fill="#FFFFFF" fill-rule="nonzero" opacity="0.2"></path>
            <g id="编组" opacity="0.2" transform="translate(156.228956, 280.898876)" fill="#FFFFFF" fill-rule="nonzero">
                <path d="M7.37598204,8.05842697 L1.15824916,28.5123596 L0.260381594,28.5123596 L6.59483726,7.67640449 C6.59483726,7.67640449 6.88664422,7.80224719 7.37598204,8.05842697 Z" id="路径"></path>
                <path d="M14.2805836,0.426966292 L15.1784512,0.426966292 C22.8777587,7.4374076 26.264733,18.0224636 24.0673401,28.2067416 L24,28.5123596 L23.1021324,28.5123596 L23.1694725,28.2067416 C25.3668655,18.0224636 21.9798911,7.4374076 14.2805836,0.426966292 Z" id="路径"></path>
            </g>
            <path d="M162.958474,267.173034 C162.958474,267.173034 184.013468,273.874157 195.676768,262.678652 L193.203143,259.438202 C193.203143,259.438202 170.57688,264.485393 165.185185,260.786517 C159.79349,257.08764 162.958474,267.173034 162.958474,267.173034 Z" id="路径" fill="#00BFA6" fill-rule="nonzero"></path>
            <path d="M195.084175,262.25618 L195.497194,262.795506 C183.824916,273.995506 162.7789,267.289888 162.7789,267.289888 C162.7789,267.289888 162.725028,267.119101 162.64422,266.840449 C165.15376,267.591011 184.20202,272.719101 195.084175,262.25618 Z" id="路径" fill="#FFFFFF" fill-rule="nonzero" opacity="0.2"></path>
            <path d="M195.227834,262.674157 C195.227834,262.674157 196.95174,263.065169 197.746352,260.750562 C198.540965,258.435955 195.771044,257.41573 195.771044,257.41573 C195.771044,257.41573 192.8844,258.480899 192.893357,259.613483 C192.902357,260.746067 195.227834,262.674157 195.227834,262.674157 Z" id="路径" fill="#985454" fill-rule="nonzero"></path>
            <path d="M194.953984,262.310112 C194.953984,262.310112 196.67789,262.701124 197.472503,260.386517 C197.722127,259.738585 197.647034,259.010197 197.270483,258.426966 C197.865973,259.041641 198.051575,259.946155 197.746352,260.746067 C196.95174,263.065169 195.227834,262.669663 195.227834,262.669663 C194.542554,262.093459 193.922325,261.443898 193.378227,260.732584 C193.858789,261.301341 194.385865,261.829011 194.953984,262.310112 Z" id="路径" fill="#FFFFFF" fill-rule="nonzero" opacity="0.2"></path>
            <path d="M165.037037,243.896629 L164.588103,253.334831 L154.71156,253.334831 L154.71156,248.323596 C154.71156,238.260674 165.337823,234.440449 171.32211,242.525843 C171.470258,242.746067 165.037037,243.896629 165.037037,243.896629 Z" id="路径" fill="#263238" fill-rule="nonzero"></path>
            <path d="M162.819304,238.206742 C165.337823,238.413483 167.928171,239.788764 169.975309,242.552809 C170.123457,242.750562 163.690236,243.901124 163.690236,243.901124 L163.241302,253.339326 L164.588103,253.339326 L165.037037,243.901124 C165.037037,243.901124 171.470258,242.750562 171.32211,242.552809 C168.911336,239.289888 165.741863,237.986517 162.819304,238.206742 Z" id="路径" fill="#FFFFFF" fill-rule="nonzero" opacity="0.2"></path>
        </g>
    </g>
</svg>