<?xml version="1.0" encoding="UTF-8"?>
<svg width="400px" height="320px" viewBox="0 0 400 320" version="1.1" xmlns="http://www.w3.org/2000/svg" xmlns:xlink="http://www.w3.org/1999/xlink">
    <!-- Generator: Sketch 60.1 (88133) - https://sketch.com -->
    <title>undraw_project_completed_w0oq</title>
    <desc>Created with Sketch.</desc>
    <g id="页面-1" stroke="none" stroke-width="1" fill="none" fill-rule="evenodd">
        <g id="undraw_project_completed_w0oq" fill-rule="nonzero">
            <rect id="矩形" fill="#3F3D56" x="0" y="297.094759" width="399.796498" height="1"></rect>
            <path d="M250.840108,138.657222 C250.840108,138.657222 232.907627,152.677942 241.873867,155.864469 C250.840108,159.050996 256.604116,144.392972 256.604116,144.392972 L250.840108,138.657222 Z" id="路径" fill="#FFB8B8"></path>
            <path d="M251.480552,133.55878 L247.637876,139.931834 C247.637876,139.931834 254.042336,139.931834 255.323224,149.491415 L260.446793,143.118361 L251.480552,133.55878 Z" id="路径" fill="#CFCCE0"></path>
            <polygon id="路径" fill="#FFB8B8" points="336.659751 278.864516 337.300415 297.983587 329.614938 302.444594 326.412863 300.532852 327.053112 278.864516"></polygon>
            <path d="M291.188187,273.765975 L292.469075,294.159752 L274.536598,301.807418 L275.81751,290.973225 C275.81751,290.973225 280.941075,282.688252 279.660183,273.765975 L291.188187,273.765975 Z" id="路径" fill="#FFB8B8"></path>
            <path d="M318.727349,120.175364 C318.727349,120.175364 328.974481,146.942191 330.895813,163.512134 C332.817145,180.082077 336.019382,224.056134 336.019382,224.056134 L342.423842,280.776341 L324.491361,283.325564 L316.806012,225.968066 L299.513979,169.247876 L295.671303,225.968058 L292.469075,277.589801 L275.81749,278.227105 L274.536577,224.69345 L267.491693,156.501772 L271.334369,123.999195 L318.727349,120.175364 Z" id="路径" fill="#2F2E41"></path>
            <path d="M328.334037,299.258195 C328.334037,299.258195 329.384473,288.554591 337.185046,294.543699 L338.581166,293.522444 L344.985622,307.543164 C344.985622,307.543164 352.670971,318.377356 339.221614,319.651964 C325.772237,320.926571 327.053149,307.543164 327.053149,307.543164 L325.772237,301.807418 L326.41268,298.051328 L328.334037,299.258195 Z" id="路径" fill="#2F2E41"></path>
            <path d="M291.188187,286.512087 C294.398576,288.338634 296.360248,291.754728 296.311751,295.434364 C296.311751,301.807418 295.671303,302.444722 295.671303,302.444722 L286.064639,304.993941 C286.064639,304.993941 279.660183,304.356633 275.81751,308.180468 C271.974838,312.004302 252.761465,314.553522 252.761465,309.4551 C252.761465,304.356678 268.772606,296.071668 268.772606,296.071668 C268.772606,296.071668 273.52744,288.081098 276.914033,288.889856 C280.300627,289.698614 281.581519,290.973225 281.581519,291.610529 C281.581519,292.247833 279.660183,296.708971 279.660183,296.708971 C279.660183,296.708971 290.547739,294.159773 291.188187,286.512087 Z" id="路径" fill="#2F2E41"></path>
            <ellipse id="椭圆形" fill="#FFB8B8" cx="289.907295" cy="25.8541543" rx="16.0111411" ry="15.9326348"></ellipse>
            <path d="M301.755539,29.9966431 L308.80044,45.9292779 L289.587071,73.3334132 C289.587071,73.3334132 288.306158,43.3800547 284.463506,38.2816124 C280.620855,33.1831701 301.755539,29.9966431 301.755539,29.9966431 Z" id="路径" fill="#FFB8B8"></path>
            <polygon id="路径" fill="#CFCCE0" points="292.789212 63.1366194 295.991701 54.8517161 298.553112 55.4888258 301.755602 52.9395613 306.238589 38.9190194 312.643154 43.3800258 320.96888 126.866994 269.092946 128.141626 276.137759 70.1468903 282.542324 53.5770839 287.165145 47.4954323 290.227386 56.7634581"></polygon>
            <path d="M307.519552,98.8256289 L309.479303,41.1762457 C309.479303,41.1762457 313.28356,41.4681394 314.564452,43.3800547 C315.845344,45.2919701 336.980054,49.1158049 336.980054,49.1158049 L333.137378,108.385214 C333.137378,108.385214 349.148519,155.545815 343.38451,158.095046 C337.620502,160.644278 327.373365,160.006962 327.373365,160.006962 L307.519552,98.8256289 Z" id="路径" fill="#575A89"></path>
            <path d="M276.457934,91.4966173 L283.251959,52.6432 L268.132141,62.8178746 L271.974813,90.8593135 L268.772585,109.978475 C268.772585,109.978475 256.604116,162.87483 260.446797,164.786746 C264.289477,166.698661 268.772589,164.786746 268.772589,164.786746 L276.457938,111.253087 L276.457934,91.4966173 Z" id="路径" fill="#575A89"></path>
            <path d="M272.615261,61.543263 L268.132141,62.8178952 L266.210801,88.3101275 L263.008573,110.61582 L247.637876,138.019914 C247.637876,138.019914 255.323224,132.921472 258.525452,147.579499 L275.453091,118.252507 L272.615261,61.543263 Z" id="路径" fill="#575A89"></path>
            <path d="M322.570033,133.55878 C322.570033,133.55878 304.637552,147.579499 313.603793,150.766026 C322.570033,153.952553 328.334046,139.294526 328.334046,139.294526 L322.570033,133.55878 Z" id="路径" fill="#FFB8B8"></path>
            <polygon id="路径" fill="#CFCCE0" points="333.457676 140.569187 327.693776 147.579458 320.008299 134.196026 323.210373 128.460387"></polygon>
            <path d="M332.17671,51.3463742 L337.300274,48.7971551 C337.300274,48.7971551 341.14295,53.8955974 341.783394,58.356736 C342.423838,62.8178746 345.626071,68.5536206 345.626071,71.7401476 C345.626071,74.9266746 354.592311,104.880033 354.592311,104.880033 L334.098046,146.304908 C334.098046,146.304908 329.614925,131.009577 320.008241,129.734966 L336.019386,107.429244 L327.053145,91.4966173 L332.17671,51.3463742 Z" id="路径" fill="#575A89"></path>
            <path d="M303.31105,10.6737755 L306.330324,9.47095535 C306.330324,9.47095535 300.017336,2.55476852 291.233934,3.15620335 L293.704315,0.449841548 C293.704315,0.449841548 287.665772,-1.95576568 282.176195,4.35898632 C279.290427,7.67850529 275.951568,11.5804449 273.870145,15.9759236 L270.636714,15.9759236 L271.986224,18.9328268 L267.262921,21.8897342 L272.110925,21.3586126 C271.822042,22.977847 271.7777,24.6309246 271.979365,26.2631886 C272.18734,27.8959498 273.024657,29.3844401 274.314602,30.4145177 L274.314602,30.4145177 C274.314602,30.4145177 278.05905,22.7018777 278.05905,21.4990575 L278.05905,24.5060996 C278.05905,24.5060996 281.07832,21.799775 281.07832,19.9955654 L282.725178,22.1004924 L283.548606,18.7927246 L293.704311,22.1004924 L292.057452,19.3941677 L298.370461,20.2962746 L295.900079,16.9885068 C295.900079,16.9885068 303.03651,20.8976516 303.31105,24.2054111 C303.585498,27.513121 305.674361,30.647391 305.674361,30.647391 C305.674361,30.647391 311.270934,15.1843097 303.31105,10.6737755 Z" id="路径" fill="#2F2E41"></path>
            <ellipse id="椭圆形" fill="#FFB8B8" cx="303.036432" cy="23.3049352" rx="1.79324896" ry="2.23056929"></ellipse>
            <polygon id="路径" fill="#00BFA6" points="74.1082988 131.351948 18.8219917 131.351948 18.8219917 115.935794 47.6804979 115.935794"></polygon>
            <path d="M18.670166,129.236071 L18.670166,174.276104 L198.199162,174.276104 L198.199162,129.236071 L18.670166,129.236071 Z M88.6895353,166.71905 L30.3653734,166.71905 L30.3653734,160.371126 L88.6895353,160.371126 L88.6895353,166.71905 Z M186.503959,154.930044 L30.3653693,154.930044 L30.3653693,148.582123 L186.503959,148.582123 L186.503959,154.930044 Z M186.503959,143.141042 L30.3653693,143.141042 L30.3653693,136.793121 L186.503959,136.793121 L186.503959,143.141042 Z" id="形状" fill="#3F3D56"></path>
            <polygon id="路径" fill="#00BFA6" points="74.1082988 58.5021935 18.8219917 58.5021935 18.8219917 43.0856258 47.6804979 43.0856258"></polygon>
            <path d="M18.670166,57.292928 L18.670166,102.332961 L198.199162,102.332961 L198.199162,57.292928 L18.670166,57.292928 Z M88.6895353,94.7759112 L30.3653734,94.7759112 L30.3653734,88.4279866 L88.6895353,88.4279866 L88.6895353,94.7759112 Z M122.408178,82.9869089 L30.3653734,82.9869089 L30.3653734,76.6389843 L122.408178,76.6389843 L122.408178,82.9869089 Z M186.503979,71.1979066 L30.36539,71.1979066 L30.36539,64.8499819 L186.503979,64.8499819 L186.503979,71.1979066 Z" id="形状" fill="#3F3D56"></path>
            <polygon id="路径" fill="#00BFA6" points="74.1082988 202.690477 18.8219917 202.690477 18.8219917 187.274323 47.6804979 187.274323"></polygon>
            <path d="M18.670166,199.667799 L18.670166,244.707836 L198.199162,244.707836 L198.199162,199.667799 L18.670166,199.667799 Z M122.408158,237.150782 L30.3653734,237.150782 L30.3653734,230.802857 L122.408158,230.802857 L122.408158,237.150782 Z M122.408158,225.36178 L30.3653734,225.36178 L30.3653734,219.013863 L122.408158,219.013863 L122.408158,225.36178 Z M186.503959,213.572777 L30.3653693,213.572777 L30.3653693,207.224853 L186.503959,207.224853 L186.503959,213.572777 Z" id="形状" fill="#3F3D56"></path>
            <polygon id="路径" fill="#3F3D56" points="249.080913 92.3577806 223.5639 92.3577806 223.5639 66.9658839 240.879253 66.9658839 240.879253 67.5703742 224.171784 67.5703742 224.171784 91.7532903 248.473444 91.7532903 248.473444 79.6618323 249.080913 79.6618323"></polygon>
            <path d="M236.191079,85.7346023 C235.601411,84.0020026 228.206846,78.1124418 232.73805,77.1225146 L236.453913,82.0529012 L253.537797,65.0530766 L255.256008,66.7628594 L236.191079,85.7346023 Z" id="路径" fill="#00BFA6"></path>
            <polygon id="路径" fill="#3F3D56" points="249.080913 164.3008 223.5639 164.3008 223.5639 138.908903 240.879253 138.908903 240.879253 139.513806 224.171784 139.513806 224.171784 163.69631 248.473444 163.69631 248.473444 151.604852 249.080913 151.604852"></polygon>
            <path d="M236.191079,157.677746 C235.601411,155.945146 228.206846,150.055585 232.73805,149.065658 L236.453913,153.996044 L253.537797,136.99622 L255.256008,138.706003 L236.191079,157.677746 Z" id="路径" fill="#00BFA6"></path>
            <polygon id="路径" fill="#3F3D56" points="249.080913 235.941574 223.5639 235.941574 223.5639 210.55009 240.879253 210.55009 240.879253 211.154581 224.171784 211.154581 224.171784 235.337084 248.473444 235.337084 248.473444 223.245626 249.080913 223.245626"></polygon>
            <path d="M236.191079,229.318606 C235.601411,227.586007 228.206846,221.696442 232.73805,220.706519 L236.453913,225.636905 L253.537797,208.637077 L255.256008,210.346859 L236.191079,229.318606 Z" id="路径" fill="#00BFA6"></path>
        </g>
    </g>
</svg>