<?xml version="1.0" standalone="no"?><!DOCTYPE svg PUBLIC "-//W3C//DTD SVG 1.1//EN" "http://www.w3.org/Graphics/SVG/1.1/DTD/svg11.dtd"><svg class="icon" width="24px" height="24.00px" viewBox="0 0 1024 1024" version="1.1" xmlns="http://www.w3.org/2000/svg"><path d="M620.288 684.544l-31.104-87.232-157.12-0.064-31.488 87.296H313.984l152.128-405.376h86.528l157.44 405.376H620.224zM510.72 382.976l-55.552 149.824h111.04l-55.488-149.76z" fill="#2c2c2c" /><path d="M832 0a128 128 0 0 1 128 128v704a128 128 0 0 1-128 128h-192v-64h192a64 64 0 0 0 63.552-56.512L896 832v-192h64V320h-64V128a64 64 0 0 0-56.512-63.552L832 64h-192V0h192zM64 640v192a64 64 0 0 0 56.512 63.552L128 896h192v64H128a128 128 0 0 1-128-128v-192h64zM0 128a128 128 0 0 1 128-128h192v64H128a64 64 0 0 0-63.552 56.512L64 128v192H0V128z" fill="#2c2c2c" /></svg>