<?xml version="1.0" standalone="no"?><!DOCTYPE svg PUBLIC "-//W3C//DTD SVG 1.1//EN" "http://www.w3.org/Graphics/SVG/1.1/DTD/svg11.dtd"><svg class="icon" width="24px" height="24.00px" viewBox="0 0 1024 1024" version="1.1" xmlns="http://www.w3.org/2000/svg"><path d="M760.034901 1023.999431H263.964341A93.01323 93.01323 0 0 1 170.666667 930.929312V93.013799A93.01323 93.01323 0 0 1 263.964341 0.000569h496.07056A93.01323 93.01323 0 0 1 853.332575 93.070688v837.801735A93.01323 93.01323 0 0 1 760.034901 1023.999431zM739.554923 175.78704A62.122598 62.122598 0 0 0 677.546103 113.77822H346.453138A62.122598 62.122598 0 0 0 284.444318 175.78704v672.312142A62.122598 62.122598 0 0 0 346.453138 910.22178h331.092965A62.122598 62.122598 0 0 0 739.554923 848.099182V175.78704zM568.888446 796.444128H455.110795a56.888826 56.888826 0 0 1 0-113.777651h113.777651a56.888826 56.888826 0 0 1 0 113.777651z" fill="#2c2c2c" /></svg>