<?xml version="1.0" standalone="no"?><!DOCTYPE svg PUBLIC "-//W3C//DTD SVG 1.1//EN" "http://www.w3.org/Graphics/SVG/1.1/DTD/svg11.dtd"><svg class="icon" width="24px" height="24.00px" viewBox="0 0 1024 1024" version="1.1" xmlns="http://www.w3.org/2000/svg"><path d="M901.12 778.24v-204.8a40.96 40.96 0 0 0-40.96-40.96h-81.92a40.96 40.96 0 0 0-40.96 40.96v204.75904a40.96 40.96 0 0 0 40.96 40.96h81.92A40.96 40.96 0 0 0 901.12 778.24z m-286.72 0V204.8a40.96 40.96 0 0 0-40.96-40.96h-81.92a40.96 40.96 0 0 0-40.96 40.96v573.44a40.96 40.96 0 0 0 40.96 40.96h81.92a40.96 40.96 0 0 0 40.96-40.96z m-286.72 0v-368.64a40.96 40.96 0 0 0-40.96-40.96H204.8a40.96 40.96 0 0 0-40.96 40.96v368.55808c0 22.60992 18.35008 40.96 40.96 40.96L286.72 819.2a40.96 40.96 0 0 0 40.96-40.96z" fill="#ffffff" /></svg>