<?xml version="1.0" standalone="no"?><!DOCTYPE svg PUBLIC "-//W3C//DTD SVG 1.1//EN" "http://www.w3.org/Graphics/SVG/1.1/DTD/svg11.dtd"><svg class="icon" width="24px" height="24.00px" viewBox="0 0 1024 1024" version="1.1" xmlns="http://www.w3.org/2000/svg"><path d="M512 85.333333C276.352 85.333333 85.333333 276.352 85.333333 512s191.018667 426.666667 426.666667 426.666667 426.666667-191.018667 426.666667-426.666667S747.648 85.333333 512 85.333333z m0 426.666667V277.333333a21.333333 21.333333 0 1 0-42.666667 0v256a21.333333 21.333333 0 0 0 21.333334 21.333334h256a21.333333 21.333333 0 1 0 0-42.666667H512z m0 341.333333c-188.245333 0-341.333333-153.088-341.333333-341.333333s153.088-341.333333 341.333333-341.333333 341.333333 153.088 341.333333 341.333333-153.088 341.333333-341.333333 341.333333z" fill="#2c2c2c" /></svg>