<?xml version="1.0" standalone="no"?><!DOCTYPE svg PUBLIC "-//W3C//DTD SVG 1.1//EN" "http://www.w3.org/Graphics/SVG/1.1/DTD/svg11.dtd"><svg class="icon" width="24px" height="24.00px" viewBox="0 0 1024 1024" version="1.1" xmlns="http://www.w3.org/2000/svg"><path d="M910.811429 747.702857c-12.068571-16.457143-25.417143-36.022857-40.411429-58.88-14.445714-21.942857-28.16-46.445714-41.142857-73.508571-12.434286-25.782857-23.771429-54.125714-33.28-84.297143-8.594286-27.794286-12.982857-56.685714-12.982857-85.76 0-35.291429-4.937143-68.022857-14.994286-96.914286-9.691429-28.708571-22.857143-54.857143-39.497143-78.08-16.64-22.857143-36.754286-42.422857-59.611428-58.148571-20.662857-14.262857-43.52-25.417143-70.765715-34.742857 5.668571-12.068571 8.96-25.417143 8.96-39.497143 0-52.48-42.605714-95.085714-95.085714-95.085715s-95.085714 42.605714-95.085714 95.085715c0 14.08 3.291429 27.428571 8.777143 39.314285-2.377143 0.548571-5.302857 1.097143-7.497143 1.645715-23.222857 8.045714-46.08 19.931429-68.388572 35.474285-22.125714 16.091429-41.508571 35.108571-57.6 56.685715-16.822857 22.491429-30.354286 48.457143-40.228571 76.982857-10.422857 29.44-15.542857 62.537143-15.542857 98.377143 0 29.988571-4.388571 59.245714-12.8 86.308571-9.325714 29.257143-20.297143 57.234286-32.914286 83.2-11.885714 25.051429-25.234286 49.188571-40.411429 73.874286-15.177143 24.32-28.16 46.445714-38.582857 64.731428-18.651429 29.074286-11.337143 53.394286-5.302857 64.365715 10.422857 17.92 27.611429 29.988571 48.822857 29.988571h708.937143c9.691429 0 19.382857-4.754286 27.794286-9.691428 8.594286-4.754286 16.091429-12.8 21.211428-20.845715 5.851429-8.96 9.325714-19.748571 9.874286-31.268571 1.097143-13.714286-3.108571-27.245714-12.251428-39.314286zM512.365714 109.348571c15.725714 0 28.525714 12.8 28.525715 28.525715s-12.8 28.525714-28.525715 28.525714c-15.542857 0-28.525714-12.8-28.525714-28.525714s12.8-28.525714 28.525714-28.525715zM175.177143 781.897143c9.325714 0 19.931429-35.84 32-55.222857 16.64-26.88 30.902857-54.125714 43.885714-81.371429 13.714286-28.525714 25.965714-59.794286 36.388572-92.16 10.605714-33.828571 15.908571-70.034286 15.908571-106.788571 0-28.16 4.022857-53.942857 11.885714-76.617143 7.497143-22.125714 17.92-41.874286 30.537143-59.062857 12.068571-16.091429 26.514286-30.537143 42.788572-42.24 17.005714-11.885714 34.011429-20.662857 49.92-26.331429 7.314286-2.194286 29.988571-4.754286 69.851428-4.754286 37.302857 0 66.742857 2.194286 68.754286 2.194286 19.382857 6.4 37.485714 15.36 54.125714 27.062857 16.64 11.52 31.268571 25.782857 43.337143 42.422857 12.617143 17.554286 22.857143 37.668571 30.354286 60.342858 7.497143 22.125714 11.337143 47.542857 11.337143 75.52 0 35.657143 5.302857 71.131429 15.908571 105.508571 10.422857 33.645714 22.857143 65.28 36.754286 93.622857 14.262857 29.44 29.44 58.88 45.348571 83.2 12.8 19.565714 24.502857 54.491429 35.657143 54.491429h-674.742857z m170.605714 133.302857h333.348572v66.56H345.782857v-66.56z m0 0" fill="#2c2c2c" /></svg>