<?xml version="1.0" standalone="no"?><!DOCTYPE svg PUBLIC "-//W3C//DTD SVG 1.1//EN" "http://www.w3.org/Graphics/SVG/1.1/DTD/svg11.dtd"><svg class="icon" width="24px" height="24.00px" viewBox="0 0 1024 1024" version="1.1" xmlns="http://www.w3.org/2000/svg"><path d="M944.872727 309.527273L560.872727 67.490909c-30.254545-18.618182-69.818182-18.618182-100.072727 0L79.127273 309.527273c-4.654545 4.654545-11.636364 9.309091-13.963637 13.963636-13.963636 20.945455-6.981818 51.2 13.963637 65.163636l183.854545 116.363637-160.581818 102.4-4.654545 2.327273-20.945455 20.945454c-23.272727 37.236364-11.636364 86.109091 25.6 111.709091L442.181818 958.836364l4.654546 2.327272c39.563636 23.272727 90.763636 23.272727 130.327272-2.327272l339.781819-216.436364 4.654545-2.327273 20.945455-20.945454c23.272727-37.236364 11.636364-86.109091-25.6-111.709091l-160.581819-102.4 183.854546-116.363637c4.654545-4.654545 11.636364-9.309091 13.963636-13.963636 18.618182-23.272727 11.636364-51.2-9.309091-65.163636z m-62.836363 356.072727c4.654545 4.654545 6.981818 9.309091 2.327272 13.963636 0 2.327273-2.327273 2.327273-2.327272 2.327273l-339.781819 216.436364-2.327272 2.327272c-18.618182 9.309091-39.563636 9.309091-55.854546-2.327272L141.963636 684.218182H139.636364c-4.654545-2.327273-4.654545-9.309091-2.327273-13.963637 0-2.327273 2.327273-2.327273 2.327273-2.327272l186.181818-118.690909 132.654545 83.781818c30.254545 18.618182 69.818182 18.618182 100.072728 0l132.654545-83.781818 190.836364 116.363636z m-358.4-93.090909l-2.327273 2.327273c-6.981818 2.327273-16.290909 2.327273-23.272727-2.327273L148.945455 349.090909l351.418181-223.418182 2.327273-2.327272c6.981818-2.327273 16.290909-2.327273 23.272727 2.327272l349.090909 223.418182-351.418181 223.418182z" fill="#ffffff" /></svg>