<?xml version="1.0" standalone="no"?><!DOCTYPE svg PUBLIC "-//W3C//DTD SVG 1.1//EN" "http://www.w3.org/Graphics/SVG/1.1/DTD/svg11.dtd"><svg class="icon" width="48px" height="48.00px" viewBox="0 0 1024 1024" version="1.1" xmlns="http://www.w3.org/2000/svg"><path d="M21.363032 767.5203A21.362648 21.362648 0 0 0 0.000384 788.882948v213.114803A21.234728 21.234728 0 0 0 21.363032 1023.3604h980.635103A21.362648 21.362648 0 0 0 1023.360784 1001.997751V788.882948A21.362648 21.362648 0 0 0 1001.998135 767.5203z" fill="#AC92EB" /><path d="M995.985893 652.392255l-81.612992-197.252717a21.234728 21.234728 0 0 0-27.886571-11.512805L0.000384 810.757277v110.906683l42.085696 102.33604h113.209245L984.984769 679.895066a21.362648 21.362648 0 0 0 11.001124-27.502811z" fill="#5D9CEC" /><path d="M0.000384 946.60837l76.75203 76.75203h102.33604l657.636977-656.997377a21.618488 21.618488 0 0 0 0-30.189132L685.907692 185.356152a21.362648 21.362648 0 0 0-30.189132 0L0.000384 841.202249z" fill="#4FC2E9" /><path d="M0.000384 980.890943L102.336424 1023.3604h110.906683l367.386384-886.485947a21.362648 21.362648 0 0 0-11.640725-27.88657L372.119809 27.374891a21.362648 21.362648 0 0 0-27.886571 11.512804L0.000384 869.85634z" fill="#48CFAD" /><path d="M0.000384 1001.997751A21.234728 21.234728 0 0 0 21.363032 1023.3604h213.114804A21.362648 21.362648 0 0 0 255.840484 1001.997751V21.362648A21.362648 21.362648 0 0 0 234.477836 0H21.363032A21.362648 21.362648 0 0 0 0.000384 21.362648v980.635103z" fill="#A0D468" /><path d="M0.000384 767.5203v234.477451A21.234728 21.234728 0 0 0 21.363032 1023.3604h213.114804A21.362648 21.362648 0 0 0 255.840484 1001.997751V767.5203z" fill="#E6E9ED" /><path d="M127.920434 874.077701A21.362648 21.362648 0 1 0 149.283082 895.44035 21.362648 21.362648 0 0 0 127.920434 874.077701z"  /><path d="M135.979397 915.907558a21.106808 21.106808 0 0 1-27.758651-11.512805 21.362648 21.362648 0 1 1 27.758651 11.512805z"  /><path d="M143.14292 908.999875a21.362648 21.362648 0 1 1 0-30.189132 21.234728 21.234728 0 0 1 0 30.189132z"  /><path d="M147.620122 903.627233a21.362648 21.362648 0 1 1-11.640725-27.886571 21.362648 21.362648 0 0 1 11.640725 27.886571z"  /><path d="M106.557786 895.44035A21.362648 21.362648 0 1 0 127.920434 874.077701 21.362648 21.362648 0 0 0 106.557786 895.44035z"  /><path d="M106.557786 895.44035A21.362648 21.362648 0 1 0 127.920434 874.077701 21.362648 21.362648 0 0 0 106.557786 895.44035z" fill="#434A54" /></svg>