<?xml version="1.0" standalone="no"?><!DOCTYPE svg PUBLIC "-//W3C//DTD SVG 1.1//EN" "http://www.w3.org/Graphics/SVG/1.1/DTD/svg11.dtd"><svg class="icon" width="48px" height="45.64px" viewBox="0 0 1077 1024" version="1.1" xmlns="http://www.w3.org/2000/svg"><path d="M40.96 473.411368l242.903579 95.609264 93.992421 318.895157c6.036211 20.48 29.749895 28.025263 45.433263 14.44379l135.437474-116.412632a38.750316 38.750316 0 0 1 49.205895-1.455158l244.250947 187.014737c16.815158 12.880842 40.636632 3.179789 44.840421-18.32421l178.930526-907.587369c4.581053-23.390316-17.246316-42.954105-38.373052-34.330947L40.636632 416.875789c-24.576 10.024421-24.360421 46.780632 0.323368 56.535579z m321.751579 44.732632l474.812632-308.439579c8.515368-5.497263 17.246316 6.682947 9.916631 13.850947l-391.814737 384.10779a87.309474 87.309474 0 0 0-25.114947 51.2l-13.365895 104.34021a12.180211 12.180211 0 0 1-23.983158 1.832421l-51.307789-190.248421a51.738947 51.738947 0 0 1 20.857263-56.697263z" fill="#F36E20" /><path d="M362.711579 518.090105l474.812632-308.385684c8.515368-5.497263 17.246316 6.682947 9.916631 13.850947l-391.814737 384.10779a87.309474 87.309474 0 0 0-25.114947 51.2l-13.365895 104.34021a12.180211 12.180211 0 0 1-23.983158 1.832421l-51.307789-190.248421a51.738947 51.738947 0 0 1 20.857263-56.697263z" fill="#D75205" /></svg>