<?xml version="1.0" standalone="no"?><!DOCTYPE svg PUBLIC "-//W3C//DTD SVG 1.1//EN" "http://www.w3.org/Graphics/SVG/1.1/DTD/svg11.dtd"><svg class="icon" width="48px" height="48.00px" viewBox="0 0 1024 1024" version="1.1" xmlns="http://www.w3.org/2000/svg"><path d="M512.170667 713.898667c111.616-1.024 217.770667 36.181333 276.138666 100.864 105.642667 117.418667 208.384 79.701333 214.698667-50.858667 6.314667-130.56-13.824-407.552-98.133333-498.346667m0-0.170666c-84.48-90.794667-145.066667-68.266667-171.690667-59.904-26.624 8.362667-73.386667 54.101333-220.842667 54.101333-147.626667 0-194.56-45.738667-221.013333-54.101333-26.624-8.362667-87.381333-30.72-171.690667 60.074666C35.157333 356.352 15.018667 630.101333 21.162667 760.832c6.314667 130.730667 109.568 173.056 216.234666 56.490667 59.050667-64.512 169.130667-102.570667 274.944-103.594667" fill="#FF36A9" /><path d="M392.192 477.013333H201.557333v-38.058666h190.634667v38.058666z m-76.288-114.346666v190.634666h-38.058667V362.666667h38.058667z" fill="#69EBFC" /><path d="M732.842667 556.202667c-54.442667 0-98.474667-44.032-98.474667-98.304 0-54.272 44.032-98.304 98.474667-98.304 54.442667 0 98.474667 44.032 98.474666 98.304 0 54.442667-44.032 98.304-98.474666 98.304z" fill="#FFCC00" /></svg>