<?xml version="1.0" standalone="no"?><!DOCTYPE svg PUBLIC "-//W3C//DTD SVG 1.1//EN" "http://www.w3.org/Graphics/SVG/1.1/DTD/svg11.dtd"><svg class="icon" width="48px" height="48.00px" viewBox="0 0 1024 1024" version="1.1" xmlns="http://www.w3.org/2000/svg"><path d="M212.76 807.32c-0.12 0.34-0.22 0.68-0.32 1.02l0.3-1.02z" fill="#FFE066" /><path d="M860.98 919.84a427.6 427.6 0 0 0-273.12-174.12A12 12 0 0 1 578 734v-89h-132V734a12 12 0 0 1-9.84 11.8 427.6 427.6 0 0 0-273.14 174.04 4.32 4.32 0 0 0 3.5 6.82h690.94a4.32 4.32 0 0 0 3.52-6.82z" fill="#F9BF87" /><path d="M644 759.8a134.44 134.44 0 0 1-264 0 428.8 428.8 0 0 0-217.2 160.36 4.32 4.32 0 0 0 3.48 6.84h691.4a4.32 4.32 0 0 0 3.48-6.84A428.8 428.8 0 0 0 644 759.8z" fill="#F06595" /><path d="M702.68 687H321.32A31.38 31.38 0 0 1 290 655.56V329.84c0-123.08 99.4-222.84 222-222.84s222 99.76 222 222.84v325.72a31.38 31.38 0 0 1-31.32 31.44z" fill="#495057" /><path d="M308 225m203.84 0l0.32 0q203.84 0 203.84 203.84l0 64.32q0 203.84-203.84 203.84l-0.32 0q-203.84 0-203.84-203.84l0-64.32q0-203.84 203.84-203.84Z" fill="#FFCC90" /><path d="M495.58 200.86h119.14v21.8a191.58 191.58 0 0 1-191.58 191.58h-140.9a213.36 213.36 0 0 1 213.34-213.38z" fill="#495057" /><path d="M744.32 414.22a167.56 167.56 0 0 1-167.56-167.56v-45.82a167.56 167.56 0 0 1 167.56 167.56v45.82z" fill="#495057" /><path d="M438 475m-22 0a22 22 0 1 0 44 0 22 22 0 1 0-44 0Z" fill="#495057" /><path d="M588.54 631H506v-23.8h82.54c73.58 0 133.42-59.3 133.42-132.2h24c0.04 86.02-70.6 156-157.42 156z" fill="#7950F2" /><path d="M584 475m-22 0a22 22 0 1 0 44 0 22 22 0 1 0-44 0Z" fill="#495057" /><path d="M750 413h-28v-78.1a210 210 0 0 0-420 0v78.1h-28v-78.1a238 238 0 0 1 476 0z" fill="#7950F2" /><path d="M738.74 533A24.84 24.84 0 0 1 714 508v-134a24.84 24.84 0 0 1 24.74-24.94 91.64 91.64 0 0 1 91.26 92 91.64 91.64 0 0 1-91.26 91.94zM285.26 349A24.84 24.84 0 0 1 310 374v134a24.84 24.84 0 0 1-24.74 24.94A91.64 91.64 0 0 1 194 441a91.64 91.64 0 0 1 91.26-92z" fill="#9775FA" /><path d="M458 589m28 0l48 0q28 0 28 28l0 4q0 28-28 28l-48 0q-28 0-28-28l0-4q0-28 28-28Z" fill="#9775FA" /></svg>